<svg version="1.1" viewBox="0.0 0.0 960.0 540.0" fill="none" stroke="none" stroke-linecap="square" stroke-miterlimit="10" xmlns:xlink="http://www.w3.org/1999/xlink" xmlns="http://www.w3.org/2000/svg"><clipPath id="p.0"><path d="m0 0l960.0 0l0 540.0l-960.0 0l0 -540.0z" clip-rule="nonzero"/></clipPath><g clip-path="url(#p.0)"><path fill="#163ef5" d="m0 0l960.0 0l0 540.0l-960.0 0z" fill-rule="evenodd"/><path fill="#00796b" d="m0.0032165353 540.0l0 -243.46457l773.7952 243.46457z" fill-rule="evenodd"/><path fill="#c4a15a" d="m960.0 540.0l0 -377.19684l-583.874 377.19684z" fill-rule="evenodd"/><path fill="#233a44" d="m960.0005 0l0 215.49606l-428.8819 -215.49606z" fill-rule="evenodd"/><g filter="url(#shadowFilter-p.1)"><use xlink:href="#p.1" transform="matrix(1.01 0.0 0.0 1.01 -4.800026246719154 -2.699999999999992)"/></g><defs><filter id="shadowFilter-p.1" filterUnits="userSpaceOnUse"><feGaussianBlur in="SourceAlpha" stdDeviation="8.0" result="blur"/><feComponentTransfer in="blur" color-interpolation-filters="sRGB"><feFuncR type="linear" slope="0" intercept="0.0"/><feFuncG type="linear" slope="0" intercept="0.0"/><feFuncB type="linear" slope="0" intercept="0.0"/><feFuncA type="linear" slope="0.4" intercept="0"/></feComponentTransfer></filter></defs><g id="p.1"><path fill="#ffffff" d="m21.341208 21.653543l917.3229 0l0 496.6929l-917.3229 0z" fill-rule="evenodd"/></g><path fill="#ffffff" d="m80.21663 109.7l167.95743 -109.637794l14.877213 0l-167.95743 109.637794z" fill-rule="evenodd"/><path fill="#ffffff" d="m53.504665 109.7l167.95743 -109.637794l14.877213 0l-167.95743 109.637794z" fill-rule="evenodd"/><path fill="#ffffff" d="m26.7927 109.7l167.95743 -109.637794l14.877228 0l-167.95743 109.637794z" fill-rule="evenodd"/><path fill="#163ef5" d="m148.47852 109.7l167.95743 -109.637794l14.877228 0l-167.95743 109.637794z" fill-rule="evenodd"/><path fill="#163ef5" d="m121.76655 109.7l167.95743 -109.637794l14.877228 0l-167.95743 109.637794z" fill-rule="evenodd"/><path fill="#163ef5" d="m95.05459 109.7l167.95743 -109.637794l14.877197 0l-167.95743 109.637794z" fill-rule="evenodd"/><path fill="#233a44" d="m804.1478 79.49565l124.778015 -78.96144l6.3759766 0l-124.778015 78.96144z" fill-rule="evenodd"/><path fill="#233a44" d="m772.5447 79.49565l124.778015 -78.96144l6.3759766 0l-124.778015 78.96144z" fill-rule="evenodd"/><path fill="#233a44" d="m740.9415 79.49565l124.778015 -78.96144l6.3759766 0l-124.778015 78.96144z" fill-rule="evenodd"/><path fill="#ffffff" d="m769.5496 540.00934l153.58398 -97.19028l15.669434 0l-153.58392 97.19028z" fill-rule="evenodd"/><path fill="#ffffff" d="m728.766 540.00934l153.58398 -97.19028l15.669434 0l-153.58398 97.19028z" fill-rule="evenodd"/><path fill="#ffffff" d="m687.9823 540.00934l153.58398 -97.19028l15.669495 0l-153.58398 97.19028z" fill-rule="evenodd"/><path fill="#00796b" d="m116.34877 539.5234l179.72563 -113.733154l18.3154 0l-179.72563 113.733154z" fill-rule="evenodd"/><path fill="#00796b" d="m68.628395 539.5234l179.72562 -113.733154l18.315414 0l-179.72563 113.733154z" fill-rule="evenodd"/><path fill="#00796b" d="m20.908016 539.5234l179.72562 -113.733154l18.315414 0l-179.72563 113.733154z" fill-rule="evenodd"/><path fill="#000000" fill-opacity="0.0" d="m214.45932 207.75328l552.5354 0l0 75.9055l-552.5354 0z" fill-rule="evenodd"/><path fill="#000000" d="m319.93524 257.73517q0.953125 0 1.234375 -0.8125q0.265625 -0.828125 0.546875 -2.328125l2.859375 0.828125q-0.40625 2.046875 -0.6875 2.859375q-0.671875 2.046875 -2.859375 2.046875l-5.59375 0q-2.453125 0 -2.453125 -2.3125l0 -12.828125l2.59375 0q1.09375 0.140625 0.125 0.8125l0 4.09375l6.140625 -2.71875l1.5 2.453125q0.140625 0.671875 -0.8125 0.265625l-6.828125 2.453125l0 4.09375q0 1.09375 0.96875 1.09375l3.265625 0zm-19.640625 -7.90625q-2.046875 6.265625 -4.09375 10.359375q0.140625 1.234375 -0.6875 0.40625l-2.3125 -2.171875q2.453125 -4.09375 4.78125 -10.234375l2.3125 1.640625zm6.140625 -0.546875l5.1875 0l0 2.59375l-5.1875 0l0 5.171875q2.71875 -0.53125 5.453125 -1.078125l0.265625 2.453125q-6.671875 1.765625 -9.8125 2.3125q-0.6875 1.09375 -0.8125 0l-0.828125 -2.71875q1.5 -0.140625 3.0 -0.421875l0 -12.40625l2.59375 0q1.09375 0.140625 0.140625 0.8125l0 3.28125zm-6.28125 -12.140625q-2.859375 -1.90625 -4.90625 -3.140625l1.640625 -2.734375q2.453125 0.953125 4.90625 3.0l-1.640625 2.875zm21.421875 6.8125l-18.015625 0l0 -12.6875l18.015625 0l0 12.6875zm-2.734375 -7.640625l0 -2.859375l-12.546875 0l0 2.859375l12.546875 0zm0 5.46875l0 -3.28125l-12.546875 0l0 3.28125l12.546875 0zm-19.90625 3.671875q-2.734375 -1.90625 -5.328125 -3.40625l1.640625 -2.734375q2.453125 1.234375 5.3125 3.28125l-1.625 2.859375zm54.28125 -8.453125l4.921875 0l0 2.59375l-4.921875 0l0 3.953125l4.09375 0l0 2.1875l-4.09375 0l0 4.359375l4.09375 0l0 2.1875l-4.09375 0l0 5.3125l5.734375 0l0 2.59375l-11.875 0l0 1.234375l-2.3125 0l0 -18.6875q-0.953125 1.625 -2.59375 3.0l-1.765625 -1.5q1.625 -1.09375 2.453125 -2.453125q-0.546875 0.546875 -1.09375 0.546875l-2.3125 0q-2.046875 0 -1.78125 -2.046875l0.546875 -3.96875l-2.59375 0q-0.140625 5.328125 -6.265625 8.1875l-1.515625 -2.171875q5.1875 -1.78125 5.46875 -6.015625l-4.09375 0l0 -2.171875l4.21875 0l0 -4.09375l2.1875 0q1.09375 0.140625 0.140625 0.8125l0 3.28125l4.90625 0l-0.8125 5.59375q-0.140625 0.546875 0.546875 0.546875l0.8125 0q0.6875 0 0.6875 -0.546875l0.125 -1.78125l1.921875 0.546875l-0.140625 1.640625q1.640625 -3.28125 2.859375 -9.421875l2.328125 0.421875q0.953125 0.125 -0.140625 0.8125q-0.546875 2.1875 -1.5 5.046875l3.546875 0l1.640625 -6.28125l2.59375 0.96875q1.078125 0.53125 -0.28125 0.8125l-1.640625 4.5zm-18.953125 16.234375q-1.359375 2.3125 -5.046875 5.046875l-1.640625 -2.3125q4.359375 -2.734375 6.6875 -7.234375l-5.59375 0l0 -2.1875l5.59375 0l0 -3.40625l2.59375 0q1.09375 0.140625 0.125 0.8125l0 2.59375l5.875 0l0 2.1875l-5.875 0l0 1.765625q3.421875 1.78125 5.734375 3.96875l-1.5 2.3125q-1.765625 -1.90625 -4.234375 -3.6875l0 8.328125l-2.71875 0l0 -8.1875zm12.8125 -13.640625l0 3.953125l3.828125 0l0 -3.953125l-3.828125 0zm3.828125 6.140625l-3.828125 0l0 4.359375l3.828125 0l0 -4.359375zm0 6.546875l-3.828125 0l0 5.3125l3.828125 0l0 -5.3125zm41.609375 8.3125q-7.640625 -4.765625 -9.6875 -13.5q-0.6875 9.421875 -8.453125 13.921875l-1.5 -2.875q7.765625 -4.21875 7.765625 -15.953125l-7.09375 0l0 -2.59375l7.234375 0l0 -9.28125l2.59375 0q1.09375 0.140625 0.140625 0.828125l0 8.453125l9.671875 0l0 2.59375l-9.0 0q1.359375 10.234375 9.828125 15.0l-1.5 3.40625zm-29.609375 -10.90625q4.375 -2.046875 6.6875 -3.6875l0 -15.546875l2.59375 0q1.09375 0.140625 0.140625 0.8125l0 29.75l-2.734375 0l0 -11.875l-4.90625 3.28125q-0.140625 0.953125 -0.6875 0.40625l-1.09375 -3.140625zm3.0 -5.734375q-0.8125 -3.265625 -2.59375 -6.546875l2.734375 -1.09375q1.78125 2.875 2.734375 6.6875l-2.875 0.953125zm21.421875 -11.859375q2.734375 1.5 3.8125 3.671875l-2.171875 2.1875q-1.375 -2.1875 -3.6875 -3.8125l2.046875 -2.046875zm31.375 13.234375l-2.734375 0l0 3.40625q0 9.140625 -9.953125 12.28125l-1.234375 -3.140625q8.46875 -2.328125 8.46875 -9.421875l0 -3.125l-1.640625 0l0 1.625l-2.734375 0l0 -14.859375l17.609375 0l0 14.3125l-2.734375 0l0 -1.078125l-2.3125 0l0 10.765625q0 0.953125 1.21875 0.953125l1.359375 0q0.96875 0 1.09375 -0.8125l0.6875 -2.859375l2.859375 0.671875l-1.09375 3.828125q-0.53125 1.765625 -2.859375 1.765625l-3.40625 0q-2.59375 0 -2.59375 -2.59375l0 -11.71875zm5.046875 -2.59375l0 -8.046875l-12.140625 0l0 8.046875l12.140625 0zm-21.828125 -11.1875q2.453125 0.953125 4.640625 3.546875l-1.90625 2.71875q-1.78125 -2.3125 -4.375 -3.953125l1.640625 -2.3125zm-1.5 8.3125q2.859375 1.234375 5.1875 3.546875l-1.90625 2.734375q-2.1875 -2.3125 -4.78125 -3.8125l1.5 -2.46875zm5.453125 10.640625q-2.046875 5.734375 -4.765625 9.015625q0.265625 1.5 -0.828125 0.53125l-2.171875 -2.171875q3.125 -3.140625 5.59375 -9.140625l2.171875 1.765625zm44.203125 -0.546875l-3.28125 0q0.421875 10.09375 -12.953125 11.609375l-0.953125 -3.015625q11.328125 -0.953125 11.046875 -8.59375l-3.265625 0l0 1.375l-2.734375 0l0 -20.0625l20.875 0l0 20.0625l-2.734375 0l0 -1.375l-3.265625 0l0 6.96875q0 1.09375 0.953125 1.09375l4.90625 0q1.234375 0 1.640625 -1.09375l0.40625 -2.046875l3.0 0.8125l-0.546875 2.328125q-0.546875 2.578125 -3.265625 2.578125l-7.375 0q-2.453125 0 -2.453125 -2.3125l0 -8.328125zm-9.40625 -2.578125l15.40625 0l0 -3.015625l-15.40625 0l0 3.015625zm0 -5.59375l15.40625 0l0 -2.59375l-15.40625 0l0 2.59375zm0 -5.1875l15.40625 0l0 -2.734375l-15.40625 0l0 2.734375zm29.453125 3.953125q12.140625 -0.8125 15.5625 -1.359375l1.078125 -0.546875l2.328125 2.3125q-5.1875 3.6875 -8.734375 7.5q2.734375 -0.40625 3.546875 -0.125q1.5 0.546875 1.5 2.3125l0 4.640625q0 1.640625 1.640625 1.5l7.90625 0l-0.546875 3.0l-6.8125 0q-4.90625 0 -4.90625 -4.234375l0 -3.40625q0 -1.640625 -2.046875 -1.640625q-1.78125 0 -3.546875 1.640625q-3.546875 3.28125 -6.6875 7.09375l-2.453125 -1.640625q6.546875 -7.640625 15.40625 -15.546875l-12.28125 1.5l-0.953125 -3.0zm16.375 -5.046875q-6.140625 -0.140625 -12.6875 -0.8125l0.40625 -3.140625q5.1875 1.09375 12.6875 1.09375l-0.40625 2.859375zm30.011536 22.09375q2.1875 -0.265625 3.6875 -1.765625q1.625 -1.640625 1.625 -4.375q0 -3.0 -1.765625 -4.765625q-1.78125 -1.78125 -5.59375 -1.78125q-4.5 0 -6.953125 1.78125q-2.328125 1.640625 -6.0 5.859375l-2.328125 -2.046875q9.828125 -9.8125 14.875 -16.359375q-4.5 0.546875 -9.0 0.953125l-0.953125 -3.140625q6.671875 0 11.859375 -0.6875l1.234375 -0.546875l1.5 1.5q1.5 1.375 -0.6875 1.78125q-4.09375 4.640625 -8.1875 9.140625q2.875 -0.6875 4.78125 -0.6875q5.1875 0 7.640625 2.453125q2.453125 2.46875 2.453125 6.28125q0 3.953125 -2.1875 6.140625q-3.265625 3.265625 -8.3125 3.265625q-4.78125 0 -6.96875 -2.171875q-1.765625 -1.78125 -1.765625 -4.234375q0 -1.640625 1.21875 -2.859375q1.375 -1.375 3.140625 -1.375q2.453125 0 4.09375 1.640625q1.90625 1.90625 2.59375 6.0zm-2.734375 0.421875q-0.40625 -3.546875 -1.625 -4.78125q-0.953125 -0.953125 -1.921875 -0.953125q-1.078125 0 -1.625 0.546875q-0.6875 0.671875 -0.6875 1.5q0 1.21875 1.09375 2.3125q1.359375 1.375 3.546875 1.375q0.546875 0 1.21875 0zm15.8349 -12.28125q5.859375 -5.328125 7.359375 -14.59375l3.0 0.8125q0.953125 0.265625 -0.40625 1.09375q-0.265625 2.046875 -1.90625 6.0l0.8125 0.265625q0.546875 0.421875 -0.40625 0.96875l0 20.1875l-2.734375 0l0 -17.0625q-1.625 2.59375 -3.953125 4.78125l-1.765625 -2.453125zm30.28125 6.6875l-0.40625 3.125q-0.546875 3.96875 -3.96875 3.96875l-9.125 0q-2.46875 0 -2.46875 -2.328125l0 -25.640625l2.59375 0q1.375 0.140625 0.140625 0.8125l0 10.09375q5.1875 -2.046875 9.546875 -5.3125l2.046875 2.453125q0.953125 0.8125 -0.6875 0.8125q-5.859375 3.0 -10.90625 5.046875l0 9.96875q0 1.09375 0.953125 1.09375l7.234375 0q1.5 0 1.640625 -1.375l0.265625 -3.265625l3.140625 0.546875zm7.09375 3.671875q14.859375 -3.265625 22.375 -15.40625l2.453125 2.453125q-6.953125 11.1875 -21.5625 15.828125q-0.40625 1.625 -1.359375 0.125l-1.90625 -3.0zm-0.953125 -16.5q3.40625 1.765625 6.953125 4.359375l-2.1875 2.875q-4.09375 -3.0 -6.8125 -4.375l2.046875 -2.859375zm3.8125 -8.046875q3.6875 2.046875 6.953125 4.359375l-1.90625 2.875q-3.6875 -2.59375 -6.8125 -4.375l1.765625 -2.859375zm42.156372 14.328125q5.859375 4.5 11.59375 10.359375l-2.734375 2.3125q-5.71875 -6.0 -11.046875 -10.09375q-5.3125 5.734375 -12.140625 10.234375l-2.59375 -2.3125q14.46875 -9.421875 18.5625 -18.828125l-14.875 0.953125l-0.40625 -3.265625l15.828125 -0.6875l1.625 -0.40625l2.1875 2.171875q0.953125 0.96875 -0.546875 1.234375q-2.59375 4.5 -5.453125 8.328125zm27.824036 -1.234375l-13.640625 0l0 -3.0l27.96875 0l0 3.0l-11.1875 0l0 1.765625q0 8.59375 -6.140625 14.1875l-2.734375 -2.046875q5.734375 -4.5 5.734375 -12.140625l0 -1.765625zm-8.734375 -8.328125l0 -3.0l18.15625 0l0 3.0l-18.15625 0zm26.872131 17.0625l5.734375 -0.140625q4.90625 -10.640625 7.5 -21.6875l3.140625 1.09375q1.234375 0.8125 -0.265625 1.21875q-2.59375 9.6875 -6.96875 19.109375l14.1875 -0.6875q-2.859375 -3.828125 -4.5 -5.59375l2.734375 -1.90625q4.640625 5.046875 8.859375 11.859375l-3.0 2.046875l-2.171875 -3.546875l-22.921875 1.78125q-0.8125 1.359375 -1.234375 0l-1.09375 -3.546875z" fill-rule="nonzero"/><path fill="#000000" fill-opacity="0.0" d="m195.13911 142.2082l562.86615 0l0 54.86615l-562.86615 0z" fill-rule="evenodd"/><path fill="#000000" d="m357.75967 176.38634q1.875 -0.71875 3.75 -1.875l0 -6.765625l-3.125 0l0 -1.96875l5.203125 0l0 8.640625q1.15625 1.96875 5.84375 1.96875l12.703125 0l-0.53125 1.984375l-13.421875 0q-3.546875 0 -5.734375 -2.5q-1.25 1.25 -3.53125 2.921875l-1.15625 -2.40625zm3.75 -19.875q2.078125 1.453125 3.234375 3.21875l-1.765625 1.765625q-1.5625 -2.078125 -3.234375 -3.4375l1.765625 -1.546875zm10.109375 17.375l-1.78125 0l0 -6.546875l6.875 0l0 5.296875l-5.09375 0l0 1.25zm3.328125 -2.90625l0 -1.984375l-3.328125 0l0 1.984375l3.328125 0zm5.828125 2.28125q0 1.78125 -1.765625 1.78125l-1.875 0l-0.21875 -1.984375l1.359375 0q0.421875 0 0.421875 -0.421875l0 -6.765625l-11.046875 0l0 9.375l-2.078125 0l0 -11.34375l2.296875 0l0 -7.609375l10.828125 0l0 7.609375l2.078125 0l0 9.359375zm-3.859375 -11.765625l-3.109375 0l0 2.40625l3.109375 0l0 -2.40625zm0 -1.65625l0 -1.875l-7.28125 0l0 5.9375l2.390625 0l0 -4.0625l4.890625 0zm28.640625 18.84375l-1.671875 -2.078125l-16.4375 1.453125q-0.109375 0.828125 -0.53125 0.421875l-0.71875 -2.921875l3.53125 -0.109375q2.296875 -3.640625 3.953125 -7.703125l-8.734375 0l0 -1.96875l10.515625 0l0 -4.484375l-8.125 0l0 -1.984375l8.125 0l0 -3.734375l1.96875 0q0.84375 0.09375 0.109375 0.625l0 3.109375l8.125 0l0 1.984375l-8.125 0l0 4.484375l10.515625 0l0 1.96875l-11.453125 0q-2.1875 4.375 -4.375 7.703125l10.421875 -0.625q-1.984375 -2.28125 -3.546875 -3.640625l1.5625 -1.5625q3.328125 2.390625 7.078125 7.390625l-2.1875 1.671875zm18.75 -16.5625q-1.78125 10.421875 -4.28125 12.921875q-1.34375 1.34375 -2.8125 1.34375q-1.65625 0 -2.59375 -0.9375q-2.5 -2.5 -2.5 -6.234375q0 -4.59375 3.234375 -7.8125q3.53125 -3.546875 8.640625 -3.546875q4.578125 0 7.171875 2.609375q2.921875 2.90625 2.921875 6.875q0 4.265625 -2.703125 6.96875q-1.765625 1.765625 -5.421875 3.4375l-2.1875 -2.1875q3.65625 -1.140625 5.734375 -3.234375q1.96875 -1.96875 1.96875 -4.78125q0 -3.328125 -2.171875 -5.515625q-2.1875 -2.1875 -6.875 -1.984375l1.875 0.9375q1.25 0.515625 0 1.140625zm-2.40625 -1.96875q-2.703125 0.625 -4.6875 2.59375q-2.703125 2.71875 -2.703125 6.671875q0 2.390625 1.5625 3.953125q0.3125 0.3125 0.9375 0.3125q0.625 0 1.359375 -0.734375q2.390625 -2.390625 3.53125 -12.796875zm29.375 -4.265625l9.78125 0l0 21.234375q0 1.671875 -1.671875 1.671875l-2.5 0l-0.296875 -1.984375l1.96875 0q0.421875 0 0.421875 -0.421875l0 -11.859375l-3.859375 0l-3.84375 0l0 -8.640625zm-8.640625 16.125l0 -1.65625l4.15625 0l0 -2.5l-3.4375 0l0 -1.671875l13.125 0l0 1.671875l-2.703125 0l0 2.5l3.53125 0l0 1.65625l-3.53125 0l0 6.25l-2.09375 0l0 -6.25l-2.8125 0q0.21875 4.59375 -4.6875 6.78125l-1.03125 -1.984375q3.640625 -1.359375 3.640625 -4.796875l-4.15625 0zm3.734375 -14.46875l-5.203125 0l0 1.875l5.203125 0l0 -1.875zm2.09375 6.984375l-7.296875 0l0 14.578125l-2.078125 0l0 -23.21875l9.375 0l0 8.640625zm3.21875 5.828125l0 -2.5l-2.8125 0l0 2.5l2.8125 0zm7.296875 -10.9375l0 -1.875l-5.625 0l0 1.875l5.625 0zm-5.625 3.4375l5.625 0l0 -1.765625l-5.625 0l0 1.765625zm-12.1875 0l5.203125 0l0 -1.765625l-5.203125 0l0 1.765625zm29.890625 2.1875q-2.1875 1.671875 -5.515625 2.8125l-1.046875 -2.078125q3.328125 -1.046875 5.828125 -2.921875l-3.125 -2.1875l1.46875 -1.671875l3.421875 2.40625q1.046875 -0.734375 2.71875 -3.125l-5.625 0l0 -1.984375l6.765625 0l0.421875 -0.40625l1.5625 1.140625q0.40625 0.40625 -0.3125 0.515625q1.25 1.453125 2.078125 2.296875l3.125 -3.125l1.765625 1.34375q0.109375 0.53125 -0.515625 0.3125l-3.125 2.609375q0.421875 0.515625 1.359375 1.046875l3.21875 -3.234375l1.765625 1.453125q0.109375 0.53125 -0.515625 0.3125l-3.125 2.5q1.671875 1.046875 4.890625 2.09375l-1.03125 2.1875q-2.921875 -0.9375 -5.3125 -2.71875l0 1.5625l-1.984375 0l0 2.8125l6.359375 0l0 1.984375l-6.359375 0l0 4.578125q0 0.828125 0.734375 0.828125l3.015625 0q1.140625 0 1.359375 -0.9375l0.515625 -1.96875l2.1875 0.71875q-0.625 4.171875 -2.921875 4.171875l-5.296875 0q-1.671875 0 -1.671875 -1.765625l0 -5.625l-3.328125 0q0 6.875 -8.953125 8.125l-0.625 -2.1875q7.484375 -1.15625 7.484375 -5.9375l-5.921875 0l0 -1.984375l6.03125 0l0 -2.8125l-1.765625 0l0 -1.140625zm5.515625 -5.828125q-1.671875 3.015625 -4.375 5.0l9.375 0q-3.125 -2.09375 -5.0 -5.0zm1.5625 9.78125l0 -2.8125l-3.234375 0l0 2.8125l3.234375 0zm26.03125 -6.34375l6.96875 0l0 1.96875l-6.96875 0l0 1.5625l7.703125 0l0 1.984375l-7.703125 0l0 1.671875l10.7187805 0l0 1.96875l-10.0937805 0q2.296875 3.125 10.0937805 4.796875l-0.71875 2.390625q-8.2344055 -1.984375 -10.7344055 -6.25q-2.5 5.3125 -10.921875 6.5625l-0.84375 -2.1875q7.8125 -1.140625 9.796875 -5.3125l-9.890625 0l0 -1.96875l10.515625 0l0 -1.671875l-7.390625 0l0 -1.984375l7.390625 0l0 -1.5625l-6.875 0l0 -1.96875l6.875 0l0 -2.09375l1.96875 0q0.84375 0.109375 0.109375 0.625l0 1.46875zm-11.96875 -4.90625l9.890625 0l0 -2.390625l2.28125 0q1.046875 0.21875 0.109375 0.84375l0 1.546875l9.7812805 0l0 5.625l-2.078125 0l0 -3.640625l-17.90628 0l0 3.640625l-2.078125 0l0 -5.625zm44.56253 17.390625l-4.0625 0l1.140625 1.671875q0.3125 0.625 -0.625 0.421875q-2.59375 1.25 -5.515625 1.875l-0.734375 -2.09375q3.4375 -0.515625 5.53125 -1.875l-2.8125 0l0 -9.359375l10.296875 0l0 9.359375l-3.015625 0q1.5625 1.046875 5.0 2.09375l-0.734375 1.875q-3.125 -0.734375 -5.515625 -2.5l1.046875 -1.46875zm-1.25 -19.984375q0.828125 0.109375 0.109375 0.625l0 1.453125l5.828125 0l0 1.671875l-5.828125 0l0 1.34375l4.578125 0l0 1.25l-4.578125 0l0 1.46875l6.03125 0l0 1.65625l-13.75 0l0 -1.65625l5.625 0l0 -1.46875l-4.375 0l0 -1.25l4.375 0l0 -1.34375l-5.515625 0l0 -1.671875l5.515625 0l0 -2.078125l1.984375 0zm2.703125 11.875l-6.765625 0l0 1.453125l6.765625 0l0 -1.453125zm0 5.40625l-6.765625 0l0 1.453125l6.765625 0l0 -1.453125zm0 -2.703125l-6.765625 0l0 1.453125l6.765625 0l0 -1.453125zm-12.703125 -3.546875q-0.421875 -0.828125 -0.828125 -1.765625l1.5625 -0.828125q1.25 2.078125 2.1875 4.46875l-1.671875 1.046875q-0.3125 -0.734375 -0.625 -1.453125l-2.296875 0.203125l0 11.25l-2.078125 0l0 -10.9375l-3.328125 0.3125q-0.3125 0.828125 -0.515625 0l-0.21875 -2.078125l2.1875 0l1.46875 -1.984375q-2.09375 -1.671875 -3.65625 -2.8125l1.15625 -1.671875q0.9375 0.53125 1.03125 0.734375q1.78125 -2.703125 3.234375 -5.515625l1.65625 0.9375q0.734375 0.3125 -0.203125 0.625q-1.5625 2.5 -3.328125 4.890625q0.828125 0.625 1.359375 1.046875q1.34375 -1.875 2.703125 -4.0625l1.65625 0.9375q0.734375 0.3125 -0.203125 0.625q-2.1875 3.125 -4.578125 6.140625l3.328125 -0.109375zm0.9375 3.546875q1.25 1.875 1.875 4.578125l-1.671875 0.9375q-0.828125 -3.015625 -1.765625 -4.796875l1.5625 -0.71875zm-8.53125 6.03125q0.828125 -3.125 1.03125 -6.03125l1.671875 0.203125q0.828125 0.203125 0.109375 0.515625q-0.21875 2.609375 -0.9375 6.046875l-1.875 -0.734375zm26.03125 -9.359375q3.75 -3.75 5.09375 -11.140625l2.1875 0.625q0.421875 0.40625 -0.3125 0.515625q-1.25 4.375 -1.65625 5.515625l0.40625 0.109375q0.3125 0.3125 -0.203125 0.625l0 16.234375l-2.078125 0l0 -13.21875q-1.15625 1.671875 -2.296875 2.703125l-1.140625 -1.96875zm5.9375 4.359375q3.21875 -3.328125 3.84375 -11.546875l-2.1875 0l0 -1.984375l9.265625 0l0 1.984375l-5.09375 0l-0.421875 3.328125l4.375 0l0 2.5q0 8.953125 -7.1875 13.75l-1.25 -1.875q3.640625 -2.296875 5.3125 -6.359375q-1.5625 -1.34375 -2.8125 -1.875q-0.9375 1.984375 -2.390625 3.859375l-1.453125 -1.78125zm4.46875 -3.953125q1.5625 0.53125 2.8125 1.5625q0.515625 -1.875 0.515625 -3.84375l-2.703125 0q-0.109375 0.9375 -0.625 2.28125zm10.515625 9.796875q0.421875 0 0.421875 -0.421875l0 -19.890625l1.96875 0q0.84375 0.109375 0.109375 0.625l0 20.203125q0 1.453125 -1.359375 1.453125l-2.796875 0l-0.21875 -1.96875l1.875 0zm-1.5625 -3.65625l-2.078125 0l0 -13.84375l1.984375 0q0.828125 0.109375 0.09375 0.625l0 13.21875zm29.046875 -14.78125q3.75 3.75 3.75 9.0625q0 5.3125 -3.75 9.0625q-3.734375 3.75 -9.046875 3.75q-5.3125 0 -9.0625 -3.75q-3.75 -3.75 -3.75 -9.0625q0 -5.3125 3.75 -9.0625q3.75 -3.75 9.0625 -3.75q5.3125 0 9.046875 3.75zm-0.71875 17.390625q3.4375 -3.4375 3.4375 -8.328125q0 -4.890625 -3.4375 -8.328125q-3.4375 -3.4375 -8.328125 -3.4375q-4.90625 0 -8.328125 3.4375q-3.4375 3.4375 -3.4375 8.328125q0 4.890625 3.4375 8.328125q3.421875 3.4375 8.328125 3.4375q4.890625 0 8.328125 -3.4375zm-6.765625 -17.390625l0 17.8125l-2.40625 0l0 -13.953125l-4.0625 0l0 -1.671875q3.859375 0.203125 4.90625 -2.1875l1.5625 0z" fill-rule="nonzero"/><path fill="#000000" fill-opacity="0.0" d="m157.89764 288.3386l674.2047 0l0 112.66141l-674.2047 0z" fill-rule="evenodd"/><path fill="#000000" d="m268.17957 336.53528q-0.703125 0 -1.078125 -0.40625q-0.359375 -0.40625 -0.359375 -1.09375l0 -22.109375q0 -0.734375 0.359375 -1.109375q0.375 -0.390625 1.078125 -0.390625q0.703125 0 1.0625 0.390625q0.375 0.375 0.375 1.109375l0 22.109375q0 0.6875 -0.359375 1.09375q-0.34375 0.40625 -1.078125 0.40625zm14.20929 0.0625q-2.46875 0 -4.296875 -1.078125q-1.8125 -1.078125 -2.8125 -3.046875q-0.984375 -1.984375 -0.984375 -4.671875q0 -2.03125 0.546875 -3.65625q0.5625 -1.625 1.640625 -2.765625q1.09375 -1.15625 2.578125 -1.765625q1.484375 -0.609375 3.328125 -0.609375q2.484375 0 4.296875 1.078125q1.8125 1.078125 2.8125 3.0625q1.0 1.96875 1.0 4.65625q0 2.03125 -0.5625 3.640625q-0.5625 1.59375 -1.640625 2.765625q-1.078125 1.171875 -2.5625 1.78125q-1.484375 0.609375 -3.34375 0.609375zm0 -2.265625q1.578125 0 2.765625 -0.765625q1.1875 -0.78125 1.828125 -2.234375q0.65625 -1.46875 0.65625 -3.53125q0 -3.171875 -1.421875 -4.84375q-1.40625 -1.6875 -3.828125 -1.6875q-1.59375 0 -2.765625 0.75q-1.171875 0.75 -1.828125 2.203125q-0.640625 1.453125 -0.640625 3.578125q0 3.140625 1.421875 4.84375q1.4375 1.6875 3.8125 1.6875zm19.007538 2.265625q-2.0 0 -3.34375 -0.71875q-1.34375 -0.71875 -2.015625 -2.09375q-0.65625 -1.375 -0.65625 -3.359375l0 -8.90625l-2.328125 0q-0.59375 0 -0.921875 -0.296875q-0.3125 -0.296875 -0.3125 -0.828125q0 -0.515625 0.3125 -0.796875q0.328125 -0.28125 0.921875 -0.28125l2.328125 0l0 -4.015625q0 -0.703125 0.375 -1.0625q0.390625 -0.375 1.0625 -0.375q0.65625 0 1.015625 0.375q0.375 0.359375 0.375 1.0625l0 4.015625l4.40625 0q0.59375 0 0.90625 0.28125q0.3125 0.28125 0.3125 0.796875q0 0.53125 -0.3125 0.828125q-0.3125 0.296875 -0.90625 0.296875l-4.40625 0l0 8.625q0 1.984375 0.84375 3.015625q0.84375 1.03125 2.71875 1.03125q0.671875 0 1.140625 -0.140625q0.46875 -0.140625 0.78125 -0.140625q0.3125 -0.03125 0.515625 0.21875q0.21875 0.234375 0.21875 0.828125q0 0.421875 -0.15625 0.78125q-0.15625 0.34375 -0.546875 0.484375q-0.40625 0.125 -1.09375 0.25q-0.6875 0.125 -1.234375 0.125z" fill-rule="nonzero"/><path fill="#000000" d="m314.79092 326.33215q-1.5 -1.640625 -2.046875 -2.1875l0 15.28125l-2.3125 0l0 -14.875q-1.234375 3.828125 -3.421875 6.421875l-1.625 -2.59375q3.125 -4.5 4.90625 -11.0625l-3.828125 0l0 -2.578125l3.96875 0l0 -6.546875l2.171875 0q1.09375 0.125 0.140625 0.8125l0 5.734375l3.140625 0l0 2.578125l-3.140625 0l0 3.828125q2.453125 1.359375 3.546875 2.734375l-1.5 2.453125zm12.546875 -7.234375q0 3.265625 0.28125 6.140625l3.671875 0q-0.265625 -1.09375 -0.953125 -2.046875l2.59375 -0.6875q0.953125 1.375 1.359375 2.734375l2.875 0l0 2.1875l-9.421875 0q0.421875 2.71875 1.375 4.765625q1.765625 -1.640625 3.265625 -4.234375l2.328125 1.234375q0.8125 0.546875 -0.421875 0.8125q-1.765625 2.734375 -3.40625 4.234375q1.90625 1.90625 3.140625 1.90625q0.8125 0 1.234375 -2.859375l2.3125 1.359375q-0.40625 3.28125 -1.90625 4.234375q-2.328125 1.5 -6.828125 -3.0q-2.859375 2.171875 -6.8125 3.40625l-1.234375 -2.59375q3.546875 -0.953125 6.40625 -3.0q-1.5 -3.0 -1.765625 -6.265625l-5.046875 0l0 2.03125q2.453125 0.828125 4.640625 2.46875l-1.640625 2.453125q-1.09375 -0.953125 -3.0 -2.328125q-0.6875 4.640625 -4.359375 7.375l-2.1875 -2.1875q3.953125 -2.3125 3.8125 -7.5l0 -2.3125l-1.5 0l0 -2.1875l9.140625 0q-0.140625 -1.359375 -0.140625 -2.328125l-1.90625 0.6875l-0.265625 -1.359375l-5.59375 0.8125q-0.28125 0.953125 -0.546875 0.40625l-0.8125 -2.59375l1.359375 0l1.640625 -2.859375l-2.875 -2.046875l1.09375 -1.765625l0.40625 0.265625l2.59375 -5.59375l2.046875 1.359375q0.546875 0.546875 -0.265625 0.546875l-2.875 4.640625l0.953125 0.6875l2.1875 -3.6875l1.78125 1.234375q0.546875 0.546875 -0.28125 0.546875l-4.21875 6.546875l2.859375 -0.28125l-0.8125 -2.171875l1.625 -0.6875q1.09375 1.640625 1.78125 4.359375l0 -13.5l2.171875 0q1.09375 0.140625 0.140625 0.8125l0 9.828125zm7.5 2.1875l-5.59375 1.078125q-0.265625 0.96875 -0.546875 0.421875l-0.8125 -2.453125l1.234375 -0.140625l1.625 -2.453125l-3.265625 -2.453125l1.09375 -1.640625l0.546875 0.40625l2.71875 -5.1875l1.921875 1.234375q0.53125 0.546875 -0.28125 0.546875l-2.734375 4.21875l1.234375 0.828125l2.1875 -3.421875l1.765625 0.96875q0.546875 0.53125 -0.265625 0.53125l-4.375 6.28125l3.0 -0.40625l-0.8125 -1.90625l1.78125 -0.421875q1.359375 2.046875 2.046875 4.78125l-2.046875 0.6875l-0.421875 -1.5zm22.65625 -3.96875q1.078125 0.28125 0 0.828125q-0.28125 1.21875 -0.6875 2.3125l14.453125 0l0 2.59375l-10.359375 0q4.765625 3.28125 11.734375 4.5l-0.6875 2.875q-2.734375 -0.546875 -3.8125 -1.09375l0 9.265625l-2.734375 0l0 -1.5l-4.78125 0l0 1.921875l-2.71875 0l0 -10.921875l7.09375 0q-3.953125 -1.640625 -7.234375 -5.046875l-2.1875 0q-2.171875 3.140625 -5.859375 5.046875l5.453125 0l0 10.640625l-2.71875 0l0 -1.640625l-4.640625 0l0 2.046875l-2.734375 0l0 -9.0q-1.21875 0.6875 -3.6875 1.234375l-0.953125 -2.875q7.375 -1.078125 12.015625 -5.453125l-10.640625 0l0 -2.59375l12.265625 0q0.828125 -1.5 1.09375 -3.265625l2.328125 0.125zm-2.734375 0.6875l-2.734375 0l0 -0.6875l-5.3125 0l0 1.234375l-2.734375 0l0 -9.546875l10.78125 0l0 9.0zm3.40625 -9.0l10.921875 0l0 9.0l-2.734375 0l0 -0.6875l-5.453125 0l0 1.234375l-2.734375 0l0 -9.546875zm7.234375 25.921875l0 -4.640625l-4.78125 0l0 4.640625l4.78125 0zm-13.375 -19.78125l0 -3.953125l-5.3125 0l0 3.953125l5.3125 0zm14.328125 -3.953125l-5.453125 0l0 3.953125l5.453125 0l0 -3.953125zm-13.90625 23.734375l0 -4.640625l-4.640625 0l0 4.640625l4.640625 0zm29.59375 -19.375q1.5 -3.140625 5.046875 -6.40625l1.5 1.359375q-3.40625 3.140625 -4.765625 6.0q-1.5 3.140625 -1.5 7.5q0 3.6875 1.5 6.96875q1.359375 3.0 4.765625 6.671875l-1.5 1.5q-3.40625 -3.8125 -5.046875 -7.21875q-1.765625 -3.6875 -1.765625 -7.921875q0 -4.765625 1.765625 -8.453125z" fill-rule="nonzero"/><path fill="#000000" d="m401.6581 336.59778q-2.03125 0 -4.078125 -0.59375q-2.046875 -0.59375 -3.546875 -1.75q-0.453125 -0.3125 -0.59375 -0.703125q-0.140625 -0.40625 -0.046875 -0.765625q0.09375 -0.375 0.359375 -0.640625q0.28125 -0.265625 0.6875 -0.296875q0.40625 -0.03125 0.890625 0.28125q1.53125 1.015625 3.0625 1.46875q1.546875 0.453125 3.1875 0.453125q1.78125 0 3.0 -0.515625q1.234375 -0.53125 1.859375 -1.5625q0.625 -1.03125 0.625 -2.53125q0 -2.171875 -1.4375 -3.28125q-1.421875 -1.125 -4.15625 -1.125l-2.46875 0q-0.671875 0 -1.015625 -0.328125q-0.34375 -0.328125 -0.34375 -0.921875q0 -0.5625 0.34375 -0.890625q0.34375 -0.328125 1.015625 -0.328125l2.234375 0q1.609375 0 2.734375 -0.5625q1.140625 -0.5625 1.765625 -1.59375q0.625 -1.03125 0.625 -2.5q0 -1.953125 -1.265625 -2.984375q-1.25 -1.03125 -3.625 -1.03125q-1.5625 0 -2.96875 0.453125q-1.390625 0.453125 -2.75 1.546875q-0.421875 0.3125 -0.828125 0.296875q-0.390625 -0.015625 -0.65625 -0.234375q-0.265625 -0.234375 -0.390625 -0.625q-0.109375 -0.390625 0.015625 -0.78125q0.140625 -0.40625 0.59375 -0.75q1.40625 -1.1875 3.28125 -1.8125q1.890625 -0.640625 3.890625 -0.640625q2.375 0 4.0625 0.75q1.6875 0.75 2.59375 2.171875q0.921875 1.40625 0.921875 3.40625q0 1.5 -0.578125 2.75q-0.578125 1.234375 -1.609375 2.109375q-1.03125 0.859375 -2.5 1.25l0 -0.390625q2.546875 0.421875 3.953125 2.078125q1.421875 1.65625 1.421875 4.171875q0 2.140625 -1.0 3.703125q-0.984375 1.546875 -2.84375 2.40625q-1.84375 0.84375 -4.421875 0.84375zm15.359375 -0.3125q-0.765625 0 -1.171875 -0.390625q-0.40625 -0.40625 -0.40625 -1.1875l0 -21.46875q0 -0.765625 0.40625 -1.171875q0.40625 -0.40625 1.171875 -0.40625l6.734375 0q5.984375 0 9.21875 3.15625q3.25 3.140625 3.25 9.140625q0 3.0 -0.828125 5.296875q-0.8125 2.28125 -2.421875 3.859375q-1.59375 1.5625 -3.90625 2.375q-2.296875 0.796875 -5.3125 0.796875l-6.734375 0zm1.296875 -2.4375l5.234375 0q2.4375 0 4.234375 -0.625q1.8125 -0.640625 3.015625 -1.859375q1.203125 -1.21875 1.796875 -3.09375q0.59375 -1.875 0.59375 -4.3125q0 -4.921875 -2.421875 -7.375q-2.40625 -2.46875 -7.21875 -2.46875l-5.234375 0l0 19.734375z" fill-rule="nonzero"/><path fill="#000000" d="m460.83575 319.09778l-7.78125 0.265625q-0.8125 11.609375 -10.78125 18.28125l-2.3125 -2.3125q9.40625 -6.28125 9.953125 -15.96875l-9.6875 0.28125l-0.265625 -2.734375l10.09375 -0.265625l0 -7.640625l2.859375 0q1.5 0.265625 0.28125 1.09375l0 6.546875l10.765625 -0.40625l0 8.453125q0 6.6875 -1.21875 9.40625q-1.234375 2.734375 -5.1875 2.734375l-3.28125 0l-0.40625 -3.40625q2.046875 0.265625 3.546875 0.265625q2.046875 0 2.59375 -1.359375q0.828125 -2.1875 0.828125 -7.640625l0 -5.59375zm7.908264 14.875q8.3125 -4.515625 12.0 -10.234375q-3.8125 -2.328125 -6.6875 -3.546875l1.640625 -3.0q3.0 1.359375 6.828125 3.546875q1.90625 -3.953125 3.265625 -10.640625l3.28125 1.09375q0.953125 0.265625 -0.140625 0.8125q-1.78125 6.8125 -3.6875 10.5q3.28125 2.1875 5.328125 3.828125l-1.78125 3.125q-2.71875 -2.3125 -5.1875 -3.953125q-5.046875 6.828125 -12.0 11.046875l-2.859375 -2.578125zm30.959473 2.453125q13.234375 -3.421875 14.875 -14.328125l-20.734375 0l0 -3.0l20.875 0l1.21875 -0.40625l2.453125 1.5q0.828125 0.671875 -0.265625 1.21875q-2.1875 13.640625 -15.96875 17.734375l-2.453125 -2.71875zm15.421875 -22.109375l-18.828125 0l0 -3.0l18.828125 0l0 3.0zm14.596985 17.609375q-1.640625 3.40625 -5.046875 7.21875l-1.5 -1.5q3.40625 -3.671875 4.765625 -6.671875q1.5 -3.28125 1.5 -6.96875q0 -4.359375 -1.5 -7.5q-1.359375 -2.859375 -4.765625 -6.0l1.5 -1.359375q3.546875 3.265625 5.046875 6.40625q1.765625 3.6875 1.765625 8.453125q0 4.234375 -1.765625 7.921875zm17.179688 -22.921875l2.875 0q1.5 0.265625 0.265625 1.09375l0.265625 6.546875q0.140625 2.859375 0.96875 4.640625q3.8125 -1.640625 10.21875 -3.421875l1.375 3.546875q-12.96875 2.328125 -17.328125 6.6875q-1.5 1.5 -1.5 3.140625q0 1.234375 0.953125 2.1875q0.953125 0.953125 3.953125 0.953125l13.09375 0l0 3.0l-13.234375 0q-4.5 0 -6.265625 -1.78125q-1.78125 -1.765625 -1.78125 -4.09375q0 -3.0 2.1875 -5.171875q1.640625 -1.640625 5.453125 -3.828125q-0.8125 -2.046875 -0.953125 -4.5l-0.546875 -9.0zm51.01831 26.875l-0.546875 2.59375l-16.09375 0q-5.453125 0 -8.734375 -3.828125l-4.359375 4.375l-2.046875 -2.875l5.046875 -3.140625l0 -8.453125l-4.359375 0l0 -2.59375l7.09375 0l0 10.921875q3.125 3.0 8.1875 3.0l15.8125 0zm-13.234375 -13.375l-4.765625 0l0 2.59375l4.765625 0l0 -2.59375zm2.734375 4.78125l0 2.046875l9.6875 0l0 2.59375l-9.6875 0l0 2.859375l-2.734375 0l0 -2.859375l-9.265625 0l0 -2.59375l9.265625 0l0 -2.046875l-3.546875 0l-3.546875 0l0 -11.59375l7.09375 0l0 -2.1875l-9.0 0l0 -2.59375l9.0 0l0 -3.0l2.59375 0q1.09375 0.140625 0.140625 0.8125l0 2.1875l9.0 0l0 2.59375l-9.0 0l0 2.1875l7.359375 0l0 11.59375l-7.359375 0zm5.046875 -9.421875l-5.046875 0l0 2.46875l5.046875 0l0 -2.46875zm0 4.640625l-5.046875 0l0 2.59375l5.046875 0l0 -2.59375zm-7.78125 -4.640625l-4.765625 0l0 2.46875l4.765625 0l0 -2.46875zm-14.859375 -8.3125q2.859375 1.765625 4.765625 4.640625l-2.3125 2.3125q-2.046875 -2.734375 -4.5 -4.640625l2.046875 -2.3125zm54.421875 2.453125l7.375 0l0 2.1875l-7.78125 0l0 1.765625l6.28125 0l0 2.1875l-6.28125 0l0 1.765625l6.28125 0l0 2.1875l-6.28125 0l0 1.78125l8.734375 0l0 2.171875l-16.234375 0l0 0.6875l-2.328125 0l0 -9.546875q-1.21875 1.765625 -2.578125 3.140625l-1.640625 -2.1875l1.09375 -1.09375l-2.734375 0l0 7.09375l3.8125 -1.09375l0.546875 2.328125l-4.359375 1.359375l0 10.234375q0 2.171875 -2.1875 2.171875l-2.453125 0l-0.40625 -2.59375l1.765625 0q0.546875 0 0.546875 -0.53125l0 -8.46875l-2.71875 0.6875q-0.140625 0.953125 -0.6875 0.40625l-0.8125 -3.0l4.21875 -0.953125l0 -7.640625l-3.125 0l0 -2.59375l3.125 0l0 -6.140625l2.59375 0q1.09375 0.140625 0.140625 0.828125l0 5.3125l3.0 0l0 2.328125q3.28125 -3.6875 4.640625 -8.875l2.734375 0.6875q0.53125 0.546875 -0.421875 0.671875q-0.265625 1.234375 -1.078125 2.734375l4.5 0q1.359375 -2.453125 1.90625 -3.953125l2.71875 0.8125q0.546875 0.546875 -0.40625 0.6875l-1.5 2.453125zm4.78125 21.0l-3.546875 0l-0.40625 0.96875l-2.1875 -0.828125l1.359375 -3.140625l-4.21875 0l-0.28125 1.78125q-0.8125 5.3125 -9.0 7.78125l-1.234375 -2.46875q7.09375 -1.90625 7.640625 -6.0l0.140625 -1.09375l-4.359375 0l0 -2.171875l14.59375 0l-1.09375 3.0l5.453125 0l-0.40625 4.21875q-0.40625 4.09375 -4.234375 4.09375l-4.765625 0l-0.40625 -2.59375l4.625 0q2.046875 0 2.1875 -1.5l0.140625 -2.046875zm-12.6875 -17.046875l5.1875 0l0 -1.765625l-5.1875 0l0 1.765625zm0 3.953125l5.1875 0l0 -1.765625l-5.1875 0l0 1.765625zm0 3.96875l5.1875 0l0 -1.78125l-5.1875 0l0 1.78125zm31.921875 -5.734375q-5.59375 0.40625 -11.046875 0.40625l-0.828125 -2.734375q6.6875 0 10.78125 -0.265625q-1.359375 -3.8125 -1.90625 -7.09375l3.0 0q1.21875 0.265625 0.265625 1.09375q0.546875 2.59375 1.640625 5.734375q4.78125 -0.421875 8.1875 -1.234375l0.671875 3.0q-3.953125 0.546875 -7.765625 0.8125q2.71875 5.1875 8.3125 9.015625l-2.046875 2.453125q-5.046875 -2.328125 -9.953125 -2.328125q-4.5 0 -6.265625 1.78125q-0.828125 0.8125 -0.828125 2.3125q0 1.375 1.234375 2.59375q1.90625 1.90625 9.0 1.90625l4.765625 0l-0.671875 3.0l-5.1875 0q-7.09375 0 -9.953125 -2.859375q-2.046875 -2.046875 -2.046875 -4.640625q0 -2.59375 1.5 -4.09375q2.453125 -2.453125 7.640625 -2.453125q5.1875 0 6.0 0.546875q-3.28125 -4.09375 -4.5 -6.953125zm37.783936 8.046875q0 3.8125 -3.6875 3.8125l-4.5 0l-0.546875 -3.0l4.640625 0q1.359375 0 1.359375 -1.359375l0 -4.359375l-10.21875 0.671875l0 9.96875q0 2.453125 2.578125 2.453125l13.375 0l-0.546875 3.0l-12.953125 0q-5.1875 0 -5.1875 -5.1875l0 -9.953125l-6.828125 0.546875l-0.40625 -2.875l7.234375 -0.40625l0 -6.953125l2.453125 0q1.359375 0.265625 0.28125 1.09375l0 5.71875l10.21875 -0.671875l0 -8.046875l2.453125 0q1.375 0.265625 0.28125 1.09375l0 6.8125l7.359375 -0.40625l0.28125 2.859375l-7.640625 0.140625l0 5.046875zm29.328125 9.40625q2.1875 -0.265625 3.6875 -1.765625q1.625 -1.640625 1.625 -4.375q0 -3.0 -1.765625 -4.765625q-1.78125 -1.78125 -5.59375 -1.78125q-4.5 0 -6.953125 1.78125q-2.328125 1.640625 -6.0 5.859375l-2.328125 -2.046875q9.828125 -9.8125 14.875 -16.359375q-4.5 0.546875 -9.0 0.953125l-0.953125 -3.140625q6.671875 0 11.859375 -0.6875l1.234375 -0.546875l1.5 1.5q1.5 1.375 -0.6875 1.78125q-4.09375 4.640625 -8.1875 9.140625q2.875 -0.6875 4.78125 -0.6875q5.1875 0 7.640625 2.453125q2.453125 2.46875 2.453125 6.28125q0 3.953125 -2.1875 6.140625q-3.265625 3.265625 -8.3125 3.265625q-4.78125 0 -6.96875 -2.171875q-1.765625 -1.78125 -1.765625 -4.234375q0 -1.640625 1.21875 -2.859375q1.375 -1.375 3.140625 -1.375q2.453125 0 4.09375 1.640625q1.90625 1.90625 2.59375 6.0zm-2.734375 0.421875q-0.40625 -3.546875 -1.625 -4.78125q-0.953125 -0.953125 -1.921875 -0.953125q-1.078125 0 -1.625 0.546875q-0.6875 0.671875 -0.6875 1.5q0 1.21875 1.09375 2.3125q1.359375 1.375 3.546875 1.375q0.546875 0 1.21875 0z" fill-rule="nonzero"/><path fill="#000000" d="m349.39017 378.4553q-0.640625 0 -1.03125 -0.328125q-0.375 -0.34375 -0.609375 -1.0l-7.71875 -22.046875q-0.25 -0.734375 0.109375 -1.234375q0.375 -0.5 1.171875 -0.5q0.59375 0 0.9375 0.296875q0.359375 0.296875 0.609375 0.921875l7.21875 21.203125l-1.21875 0l7.375 -21.09375q0.234375 -0.671875 0.578125 -1.0q0.359375 -0.328125 0.953125 -0.328125q0.5625 0 0.890625 0.328125q0.328125 0.328125 0.578125 1.0l7.265625 21.09375l-1.09375 0l7.3125 -21.203125q0.171875 -0.59375 0.53125 -0.90625q0.375 -0.3125 0.96875 -0.3125q0.734375 0 1.078125 0.484375q0.34375 0.484375 0.0625 1.25l-7.75 22.046875q-0.234375 0.65625 -0.609375 1.0q-0.359375 0.328125 -1.03125 0.328125q-0.625 0 -1.0 -0.328125q-0.359375 -0.34375 -0.640625 -1.0l-7.015625 -20.21875l0.765625 0l-7.09375 20.21875q-0.234375 0.65625 -0.59375 1.0q-0.34375 0.328125 -1.0 0.328125zm35.747284 0.0625q-2.6875 0 -4.625 -1.0625q-1.9375 -1.0625 -3.0 -3.015625q-1.0625 -1.96875 -1.0625 -4.6875q0 -2.65625 1.046875 -4.625q1.046875 -1.96875 2.875 -3.078125q1.84375 -1.125 4.25 -1.125q1.703125 0 3.0625 0.578125q1.375 0.5625 2.328125 1.65625q0.96875 1.078125 1.46875 2.625q0.5 1.53125 0.5 3.453125q0 0.546875 -0.3125 0.8125q-0.3125 0.265625 -0.90625 0.265625l-12.15625 0l0 -1.859375l11.5 0l-0.5625 0.453125q0 -1.875 -0.5625 -3.1875q-0.5625 -1.3125 -1.625 -2.0q-1.0625 -0.703125 -2.671875 -0.703125q-1.78125 0 -3.015625 0.828125q-1.234375 0.8125 -1.875 2.265625q-0.625 1.4375 -0.625 3.359375l0 0.21875q0 3.203125 1.546875 4.890625q1.5625 1.671875 4.421875 1.671875q1.1875 0 2.359375 -0.3125q1.171875 -0.3125 2.296875 -1.046875q0.484375 -0.3125 0.875 -0.296875q0.40625 0.015625 0.65625 0.25q0.25 0.21875 0.328125 0.546875q0.09375 0.328125 -0.0625 0.71875q-0.15625 0.375 -0.609375 0.65625q-1.15625 0.84375 -2.734375 1.296875q-1.5625 0.453125 -3.109375 0.453125zm19.531586 0q-2.3125 0 -3.96875 -1.1875q-1.65625 -1.1875 -2.21875 -3.171875l0.390625 -0.390625l0 3.21875q0 0.6875 -0.375 1.078125q-0.359375 0.390625 -1.03125 0.390625q-0.6875 0 -1.046875 -0.390625q-0.34375 -0.390625 -0.34375 -1.078125l0 -22.21875q0 -0.6875 0.34375 -1.046875q0.359375 -0.375 1.046875 -0.375q0.671875 0 1.046875 0.375q0.390625 0.359375 0.390625 1.046875l0 10.40625l-0.421875 0q0.59375 -1.953125 2.234375 -3.09375q1.640625 -1.15625 3.953125 -1.15625q2.296875 0 3.96875 1.0625q1.6875 1.0625 2.609375 3.046875q0.921875 1.96875 0.921875 4.6875q0 2.6875 -0.921875 4.671875q-0.921875 1.96875 -2.625 3.046875q-1.6875 1.078125 -3.953125 1.078125zm-0.59375 -2.265625q1.59375 0 2.765625 -0.765625q1.171875 -0.78125 1.8125 -2.234375q0.65625 -1.46875 0.65625 -3.53125q0 -3.171875 -1.421875 -4.84375q-1.40625 -1.6875 -3.8125 -1.6875q-1.578125 0 -2.765625 0.75q-1.1875 0.75 -1.84375 2.203125q-0.640625 1.453125 -0.640625 3.578125q0 3.140625 1.4375 4.84375q1.4375 1.6875 3.8125 1.6875z" fill-rule="nonzero"/><path fill="#000000" d="m430.41913 364.28342q0.28125 10.375 -8.859375 16.109375l-2.328125 -2.59375q8.046875 -4.375 8.046875 -12.28125l0 -5.859375l2.875 0q1.21875 0.125 0.265625 0.953125l0 3.546875q4.90625 -3.6875 7.5 -7.234375l-22.234375 0.8125l-0.265625 -3.125l24.828125 -0.6875l0.953125 -0.265625l2.046875 2.453125q0.40625 0.546875 -0.6875 0.40625q-4.09375 5.3125 -9.8125 9.953125l-2.328125 -2.1875zm40.921997 -9.546875q1.09375 0 1.78125 -0.671875q0.671875 -0.6875 0.671875 -1.78125q0 -1.09375 -0.671875 -1.765625q-0.6875 -0.6875 -1.78125 -0.6875q-1.09375 0 -1.765625 0.6875q-0.6875 0.671875 -0.6875 1.765625q0 1.09375 0.6875 1.78125q0.671875 0.671875 1.765625 0.671875zm0 1.375q-1.640625 0 -2.71875 -1.09375q-1.09375 -1.09375 -1.09375 -2.734375q0 -1.640625 1.09375 -2.71875q1.078125 -1.09375 2.71875 -1.09375q1.640625 0 2.734375 1.09375q1.09375 1.078125 1.09375 2.71875q0 1.640625 -1.09375 2.734375q-1.09375 1.09375 -2.734375 1.09375zm-24.421875 1.765625l0 -3.0l20.203125 0l3.546875 2.59375q-0.6875 16.5 -18.6875 21.546875l-2.46875 -3.0q17.0625 -3.953125 17.875 -18.140625l-20.46875 0zm50.204468 8.328125q0 10.234375 -9.546875 14.734375l-2.734375 -2.328125q9.015625 -4.09375 9.140625 -12.546875l0 -13.640625l2.875 0q1.359375 0.265625 0.265625 1.09375l0 12.6875zm-14.046875 3.0l-3.140625 0l0 -15.421875l3.0 0q1.375 0.140625 0.140625 1.09375l0 14.328125zm20.601868 -2.1875q6.0 -6.140625 7.640625 -15.546875l3.40625 0.8125q1.09375 0.28125 -0.28125 1.09375q-0.8125 3.0 -2.03125 5.859375l20.1875 0l0 3.015625l-7.921875 0q-1.21875 10.640625 -10.234375 18.40625l-3.125 -1.765625q9.40625 -7.515625 9.953125 -16.640625l-10.375 0q-1.765625 3.546875 -4.5 6.265625l-2.71875 -1.5zm32.46643 0l0 -3.0l30.421875 0l0 3.0l-30.421875 0zm36.55774 9.0q14.859375 -3.265625 22.375 -15.40625l2.453125 2.453125q-6.953125 11.1875 -21.5625 15.828125q-0.40625 1.625 -1.359375 0.125l-1.90625 -3.0zm-0.953125 -16.5q3.40625 1.765625 6.953125 4.359375l-2.1875 2.875q-4.09375 -3.0 -6.8125 -4.375l2.046875 -2.859375zm3.8125 -8.046875q3.6875 2.046875 6.953125 4.359375l-1.90625 2.875q-3.6875 -2.59375 -6.8125 -4.375l1.765625 -2.859375zm25.515747 26.734375l0 -2.59375l13.90625 0l0 -5.734375l-13.09375 0l0 -2.578125l13.09375 0l0 -5.46875l-13.90625 0l0 -2.59375l16.640625 0l0 20.46875l-2.734375 0l0 -1.5l-13.90625 0zm48.69696 -15.828125q-7.234375 15.015625 -24.28125 15.828125q-0.6875 1.765625 -1.359375 0.265625l-1.09375 -3.546875q17.734375 -0.40625 23.875 -14.59375l2.859375 2.046875zm-19.234375 0q-3.6875 -3.40625 -6.953125 -5.59375l2.3125 -2.859375q2.859375 1.765625 7.234375 5.859375l-2.59375 2.59375z" fill-rule="nonzero"/></g></svg>