<svg version="1.1" viewBox="0.0 0.0 960.0 540.0" fill="none" stroke="none" stroke-linecap="square" stroke-miterlimit="10" xmlns:xlink="http://www.w3.org/1999/xlink" xmlns="http://www.w3.org/2000/svg"><clipPath id="g36f0011c39a_0_390.0"><path d="m0 0l960.0 0l0 540.0l-960.0 0l0 -540.0z" clip-rule="nonzero"/></clipPath><g clip-path="url(#g36f0011c39a_0_390.0)"><path fill="#163ef5" d="m0 0l960.0 0l0 540.0l-960.0 0z" fill-rule="evenodd"/><path fill="#00796b" d="m0.0032165353 540.0l0 -243.46457l773.7952 243.46457z" fill-rule="evenodd"/><path fill="#c4a15a" d="m960.0 540.0l0 -377.19684l-583.874 377.19684z" fill-rule="evenodd"/><path fill="#233a44" d="m960.0005 0l0 215.49606l-428.8819 -215.49606z" fill-rule="evenodd"/><g filter="url(#shadowFilter-g36f0011c39a_0_390.1)"><use xlink:href="#g36f0011c39a_0_390.1" transform="matrix(1.01 0.0 0.0 1.01 -4.800026246719154 -2.699999999999992)"/></g><defs><filter id="shadowFilter-g36f0011c39a_0_390.1" filterUnits="userSpaceOnUse"><feGaussianBlur in="SourceAlpha" stdDeviation="8.0" result="blur"/><feComponentTransfer in="blur" color-interpolation-filters="sRGB"><feFuncR type="linear" slope="0" intercept="0.0"/><feFuncG type="linear" slope="0" intercept="0.0"/><feFuncB type="linear" slope="0" intercept="0.0"/><feFuncA type="linear" slope="0.4" intercept="0"/></feComponentTransfer></filter></defs><g id="g36f0011c39a_0_390.1"><path fill="#ffffff" d="m21.341208 21.653543l917.3229 0l0 496.6929l-917.3229 0z" fill-rule="evenodd"/></g><path fill="#ffffff" d="m80.21663 109.7l167.95743 -109.637794l14.877213 0l-167.95743 109.637794z" fill-rule="evenodd"/><path fill="#ffffff" d="m53.504665 109.7l167.95743 -109.637794l14.877213 0l-167.95743 109.637794z" fill-rule="evenodd"/><path fill="#ffffff" d="m26.7927 109.7l167.95743 -109.637794l14.877228 0l-167.95743 109.637794z" fill-rule="evenodd"/><path fill="#163ef5" d="m148.47852 109.7l167.95743 -109.637794l14.877228 0l-167.95743 109.637794z" fill-rule="evenodd"/><path fill="#163ef5" d="m121.76655 109.7l167.95743 -109.637794l14.877228 0l-167.95743 109.637794z" fill-rule="evenodd"/><path fill="#163ef5" d="m95.05459 109.7l167.95743 -109.637794l14.877197 0l-167.95743 109.637794z" fill-rule="evenodd"/><path fill="#233a44" d="m804.1478 79.49565l124.778015 -78.96144l6.3759766 0l-124.778015 78.96144z" fill-rule="evenodd"/><path fill="#233a44" d="m772.5447 79.49565l124.778015 -78.96144l6.3759766 0l-124.778015 78.96144z" fill-rule="evenodd"/><path fill="#233a44" d="m740.9415 79.49565l124.778015 -78.96144l6.3759766 0l-124.778015 78.96144z" fill-rule="evenodd"/><path fill="#ffffff" d="m769.5496 540.00934l153.58398 -97.19028l15.669434 0l-153.58392 97.19028z" fill-rule="evenodd"/><path fill="#ffffff" d="m728.766 540.00934l153.58398 -97.19028l15.669434 0l-153.58398 97.19028z" fill-rule="evenodd"/><path fill="#ffffff" d="m687.9823 540.00934l153.58398 -97.19028l15.669495 0l-153.58398 97.19028z" fill-rule="evenodd"/><path fill="#00796b" d="m116.34877 539.5234l179.72563 -113.733154l18.3154 0l-179.72563 113.733154z" fill-rule="evenodd"/><path fill="#00796b" d="m68.628395 539.5234l179.72562 -113.733154l18.315414 0l-179.72563 113.733154z" fill-rule="evenodd"/><path fill="#00796b" d="m20.908016 539.5234l179.72562 -113.733154l18.315414 0l-179.72563 113.733154z" fill-rule="evenodd"/><path fill="#000000" fill-opacity="0.0" d="m214.45932 207.75328l552.5354 0l0 75.9055l-552.5354 0z" fill-rule="evenodd"/><path fill="#000000" d="m331.7391 255.28204l0 3.0l-15.0 0q-4.234375 0 -5.875 -1.640625q-1.640625 -1.640625 -1.640625 -4.359375q0 -1.5 0.546875 -3.546875l3.140625 0.40625q-0.6875 2.1875 -0.6875 3.140625q0 1.21875 0.828125 2.046875q0.953125 0.953125 3.8125 0.953125l14.875 0zm-20.46875 -17.046875l0 -3.0l17.734375 0l0 3.0l-17.734375 0zm20.328125 -9.015625q2.328125 1.234375 5.1875 3.421875l-1.234375 1.90625q-3.0 -2.1875 -5.171875 -3.40625l1.21875 -1.921875zm-1.90625 3.140625q2.3125 1.234375 5.1875 3.40625l-1.234375 1.921875q-3.0 -2.1875 -5.1875 -3.421875l1.234375 -1.90625zm34.64496 17.328125q-1.359375 6.140625 -5.3125 10.5l-2.875 -1.640625q4.234375 -3.953125 5.59375 -9.8125q-4.765625 -1.78125 -9.6875 -2.453125q-3.671875 7.90625 -4.90625 9.140625q-1.640625 1.625 -3.8125 1.625q-1.640625 0 -2.734375 -1.078125q-1.234375 -1.234375 -1.234375 -3.6875q0 -2.859375 2.734375 -5.59375q3.0 -3.0 8.046875 -3.0q1.640625 -4.234375 3.0 -7.921875q-3.8125 0.96875 -7.640625 1.78125l-1.21875 -2.734375q4.5 -0.546875 8.59375 -1.5l1.640625 -0.671875l2.3125 1.765625q1.359375 0.828125 -0.140625 1.234375q-1.765625 3.140625 -3.8125 8.1875q4.359375 0.53125 9.265625 2.171875q0.28125 -3.265625 0.140625 -8.046875l2.59375 0.546875q1.5 0.28125 0.28125 1.09375q0 4.5 -0.28125 7.359375q2.59375 0.953125 6.0 2.734375l-1.359375 2.734375q-2.859375 -1.640625 -5.1875 -2.734375zm-15.140625 -3.40625q-3.140625 0 -5.046875 1.90625q-2.1875 2.1875 -2.1875 4.09375q0 0.8125 0.546875 1.359375q0.40625 0.40625 1.234375 0.40625q1.21875 0 2.1875 -1.5q0.8125 -1.21875 3.265625 -6.265625zm35.0625 -14.875q-0.40625 1.234375 -1.5 2.328125l6.6875 0q0.953125 -2.1875 1.359375 -3.546875l2.71875 0.53125q0.546875 0.546875 -0.40625 0.6875l-1.09375 2.328125l10.921875 0l0 2.171875l-11.328125 0l0 1.78125l9.140625 0l0 2.171875l-9.140625 0l0 1.78125l9.140625 0l0 2.1875l-9.140625 0l0 2.046875l12.28125 0l0 2.171875l-12.28125 0l0 2.046875l13.375 0l0 2.59375l-10.640625 0q4.359375 3.140625 11.1875 4.640625l-0.953125 2.71875q-7.640625 -1.90625 -12.96875 -6.8125l0 8.046875l-2.71875 0l0 -7.90625q-4.234375 4.359375 -13.515625 7.09375l-0.953125 -2.59375q6.953125 -1.78125 11.734375 -5.1875l-10.90625 0l0 -2.59375l13.640625 0l0 -2.046875l-4.78125 0l-4.765625 0l0 -9.6875q-1.234375 1.375 -3.015625 2.734375l-1.5 -1.90625q5.1875 -4.234375 7.234375 -9.28125l2.59375 0.8125q0.546875 0.546875 -0.40625 0.6875zm-2.59375 12.421875l0 2.046875l7.234375 0l0 -2.046875l-7.234375 0zm0 -3.96875l0 1.78125l7.234375 0l0 -1.78125l-7.234375 0zm0 -3.953125l0 1.78125l7.234375 0l0 -1.78125l-7.234375 0zm39.28125 -3.40625q0.28125 0.40625 -0.953125 0.265625l-2.71875 0.6875l0 4.90625l3.40625 0l0 2.59375l-3.40625 0l0 3.546875q3.125 2.046875 4.359375 3.28125l-1.359375 2.59375q-1.5 -1.375 -3.0 -2.734375l0 13.921875l-2.734375 0l0 -13.78125q-1.90625 4.359375 -3.953125 6.140625l-1.90625 -2.1875q4.21875 -4.5 5.859375 -10.78125l-4.78125 0l0 -2.59375l4.78125 0l0 -4.21875q-3.0 0.546875 -4.5 0.8125l-0.6875 -2.453125q6.140625 -0.8125 10.09375 -2.453125l1.5 2.453125zm-0.8125 26.734375q4.359375 -1.21875 6.953125 -3.140625l-3.8125 0l0 -12.140625l14.734375 0l0 12.140625l-4.375 0q2.734375 1.640625 6.546875 2.734375l-0.953125 2.453125q-3.6875 -0.6875 -7.234375 -3.265625l1.375 -1.921875l-6.0 0l1.5 2.1875q0.40625 0.8125 -0.828125 0.40625q-3.953125 2.328125 -6.8125 3.140625l-1.09375 -2.59375zm11.734375 -19.09375l8.59375 0l0 2.1875l-19.09375 0l0 -2.1875l7.765625 0l0 -1.78125l-5.734375 0l0 -1.625l5.734375 0l0 -1.640625l-7.234375 0l0 -2.1875l7.234375 0l0 -2.71875l2.59375 0q1.09375 0.125 0.140625 0.8125l0 1.90625l7.640625 0l0 2.1875l-7.640625 0l0 1.640625l6.0 0l0 1.625l-6.0 0l0 1.78125zm-6.28125 14.328125l10.09375 0l0 -1.921875l-10.09375 0l0 1.921875zm0 -7.09375l10.09375 0l0 -1.78125l-10.09375 0l0 1.78125zm0 3.546875l10.09375 0l0 -1.921875l-10.09375 0l0 1.921875zm37.65625 -17.875q6.0 -0.953125 9.0 -2.328125l1.5 2.59375q0.546875 1.234375 -0.8125 0.546875q-5.046875 1.09375 -9.5625 1.5l0 5.734375l12.015625 0l0 2.59375l-4.5 0l0 17.1875l-2.734375 0l0 -17.1875l-4.78125 0l0 4.21875q0 9.015625 -6.546875 13.375l-2.046875 -2.453125q5.875 -3.546875 5.875 -11.1875l0 -15.546875l2.59375 0.953125zm-5.1875 4.90625l0 11.875l-2.734375 0l0 -1.375l-6.125 0l0 3.828125q0 5.1875 -2.1875 8.734375l-2.453125 -1.921875q1.90625 -2.71875 1.90625 -6.953125l0 -14.1875l11.59375 0zm-2.734375 7.921875l0 -5.328125l-6.125 0l0 5.328125l6.125 0zm-9.953125 -11.609375l0 -2.578125l13.640625 0l0 2.578125l-13.640625 0zm64.25 -1.21875l0 2.1875l-6.546875 0l1.359375 2.71875l-3.0 0.546875l-1.21875 -3.265625l-2.1875 0q-0.8125 1.359375 -1.90625 2.578125l0 1.78125l12.8125 0l0 6.140625l-2.71875 0l0 -3.953125l-22.515625 0l0 3.953125l-2.71875 0l0 -6.140625l0.546875 0l-1.78125 -2.1875q3.953125 -3.140625 5.59375 -7.5l2.859375 0.28125q0.6875 0.40625 -0.265625 0.8125q-0.6875 1.359375 -1.09375 2.046875l7.640625 0l0 2.1875l-4.234375 0l1.234375 2.71875l-3.0 0.6875l-0.953125 -3.40625l-1.78125 0q-1.5 2.171875 -3.953125 4.359375l11.59375 0l0 -1.5l-0.546875 -0.6875q3.546875 -3.40625 4.5 -7.5l2.875 0.28125q0.546875 0.40625 -0.28125 0.8125q-0.546875 1.359375 -0.953125 2.046875l10.640625 0zm-5.859375 10.78125l0 7.09375l-15.140625 0l0 1.765625l16.5 0l0 8.328125l-2.734375 0l0 -0.828125l-13.765625 0l0 1.09375l-2.734375 0l0 -17.453125l17.875 0zm-1.375 11.046875l-13.765625 0l0 3.140625l13.765625 0l0 -3.140625zm-1.359375 -8.875l-12.40625 0l0 2.734375l12.40625 0l0 -2.734375zm24.68747 6.96875q-5.3125 1.90625 -9.953125 3.125q-0.40625 1.09375 -0.8125 0.421875l-0.96875 -3.140625l4.78125 -0.953125l0 -7.515625l-3.6875 0l0 -2.578125l3.6875 0l0 -7.234375l-4.09375 0l0 -2.59375l10.921875 0l0 2.59375l-4.09375 0l0 7.234375l3.671875 0l0 2.578125l-3.671875 0l0 6.828125q1.09375 -0.140625 3.953125 -1.09375l0.265625 2.328125zm10.78125 -6.421875l0 3.953125l7.640625 0l0 2.59375l-7.640625 0l0 4.234375l9.0 0l0 2.59375l-21.6875 0l0 -2.59375l10.375 0l0 -4.234375l-7.375 0l0 -2.59375l7.375 0l0 -3.953125l-4.921875 0l0 1.78125l-2.3125 0l0 -16.78125l16.90625 0l0 16.234375l-2.3125 0l0 -1.234375l-5.046875 0zm5.046875 -6.265625l-5.046875 0l0 4.078125l5.046875 0l0 -4.078125zm0 -6.546875l-5.046875 0l0 4.359375l5.046875 0l0 -4.359375zm-7.359375 4.359375l0 -4.359375l-4.921875 0l0 4.359375l4.921875 0zm0 2.1875l-4.921875 0l0 4.078125l4.921875 0l0 -4.078125zm17.59375 15.8125q14.859375 -3.265625 22.375 -15.40625l2.453125 2.453125q-6.953125 11.1875 -21.5625 15.828125q-0.40625 1.625 -1.359375 0.125l-1.90625 -3.0zm-0.953125 -16.5q3.40625 1.765625 6.953125 4.359375l-2.1875 2.875q-4.09375 -3.0 -6.8125 -4.375l2.046875 -2.859375zm3.8125 -8.046875q3.6875 2.046875 6.953125 4.359375l-1.90625 2.875q-3.6875 -2.59375 -6.8125 -4.375l1.765625 -2.859375zm42.156372 14.328125q5.859375 4.5 11.59375 10.359375l-2.734375 2.3125q-5.71875 -6.0 -11.046875 -10.09375q-5.3125 5.734375 -12.140625 10.234375l-2.59375 -2.3125q14.46875 -9.421875 18.5625 -18.828125l-14.875 0.953125l-0.40625 -3.265625l15.828125 -0.6875l1.625 -0.40625l2.1875 2.171875q0.953125 0.96875 -0.546875 1.234375q-2.59375 4.5 -5.453125 8.328125zm27.824036 -1.234375l-13.640625 0l0 -3.0l27.96875 0l0 3.0l-11.1875 0l0 1.765625q0 8.59375 -6.140625 14.1875l-2.734375 -2.046875q5.734375 -4.5 5.734375 -12.140625l0 -1.765625zm-8.734375 -8.328125l0 -3.0l18.15625 0l0 3.0l-18.15625 0zm26.872131 17.0625l5.734375 -0.140625q4.90625 -10.640625 7.5 -21.6875l3.140625 1.09375q1.234375 0.8125 -0.265625 1.21875q-2.59375 9.6875 -6.96875 19.109375l14.1875 -0.6875q-2.859375 -3.828125 -4.5 -5.59375l2.734375 -1.90625q4.640625 5.046875 8.859375 11.859375l-3.0 2.046875l-2.171875 -3.546875l-22.921875 1.78125q-0.8125 1.359375 -1.234375 0l-1.09375 -3.546875z" fill-rule="nonzero"/><path fill="#000000" fill-opacity="0.0" d="m195.13911 142.2082l562.86615 0l0 54.86615l-562.86615 0z" fill-rule="evenodd"/><path fill="#000000" d="m357.75967 176.38634q1.875 -0.71875 3.75 -1.875l0 -6.765625l-3.125 0l0 -1.96875l5.203125 0l0 8.640625q1.15625 1.96875 5.84375 1.96875l12.703125 0l-0.53125 1.984375l-13.421875 0q-3.546875 0 -5.734375 -2.5q-1.25 1.25 -3.53125 2.921875l-1.15625 -2.40625zm3.75 -19.875q2.078125 1.453125 3.234375 3.21875l-1.765625 1.765625q-1.5625 -2.078125 -3.234375 -3.4375l1.765625 -1.546875zm10.109375 17.375l-1.78125 0l0 -6.546875l6.875 0l0 5.296875l-5.09375 0l0 1.25zm3.328125 -2.90625l0 -1.984375l-3.328125 0l0 1.984375l3.328125 0zm5.828125 2.28125q0 1.78125 -1.765625 1.78125l-1.875 0l-0.21875 -1.984375l1.359375 0q0.421875 0 0.421875 -0.421875l0 -6.765625l-11.046875 0l0 9.375l-2.078125 0l0 -11.34375l2.296875 0l0 -7.609375l10.828125 0l0 7.609375l2.078125 0l0 9.359375zm-3.859375 -11.765625l-3.109375 0l0 2.40625l3.109375 0l0 -2.40625zm0 -1.65625l0 -1.875l-7.28125 0l0 5.9375l2.390625 0l0 -4.0625l4.890625 0zm28.640625 18.84375l-1.671875 -2.078125l-16.4375 1.453125q-0.109375 0.828125 -0.53125 0.421875l-0.71875 -2.921875l3.53125 -0.109375q2.296875 -3.640625 3.953125 -7.703125l-8.734375 0l0 -1.96875l10.515625 0l0 -4.484375l-8.125 0l0 -1.984375l8.125 0l0 -3.734375l1.96875 0q0.84375 0.09375 0.109375 0.625l0 3.109375l8.125 0l0 1.984375l-8.125 0l0 4.484375l10.515625 0l0 1.96875l-11.453125 0q-2.1875 4.375 -4.375 7.703125l10.421875 -0.625q-1.984375 -2.28125 -3.546875 -3.640625l1.5625 -1.5625q3.328125 2.390625 7.078125 7.390625l-2.1875 1.671875zm18.75 -16.5625q-1.78125 10.421875 -4.28125 12.921875q-1.34375 1.34375 -2.8125 1.34375q-1.65625 0 -2.59375 -0.9375q-2.5 -2.5 -2.5 -6.234375q0 -4.59375 3.234375 -7.8125q3.53125 -3.546875 8.640625 -3.546875q4.578125 0 7.171875 2.609375q2.921875 2.90625 2.921875 6.875q0 4.265625 -2.703125 6.96875q-1.765625 1.765625 -5.421875 3.4375l-2.1875 -2.1875q3.65625 -1.140625 5.734375 -3.234375q1.96875 -1.96875 1.96875 -4.78125q0 -3.328125 -2.171875 -5.515625q-2.1875 -2.1875 -6.875 -1.984375l1.875 0.9375q1.25 0.515625 0 1.140625zm-2.40625 -1.96875q-2.703125 0.625 -4.6875 2.59375q-2.703125 2.71875 -2.703125 6.671875q0 2.390625 1.5625 3.953125q0.3125 0.3125 0.9375 0.3125q0.625 0 1.359375 -0.734375q2.390625 -2.390625 3.53125 -12.796875zm29.375 -4.265625l9.78125 0l0 21.234375q0 1.671875 -1.671875 1.671875l-2.5 0l-0.296875 -1.984375l1.96875 0q0.421875 0 0.421875 -0.421875l0 -11.859375l-3.859375 0l-3.84375 0l0 -8.640625zm-8.640625 16.125l0 -1.65625l4.15625 0l0 -2.5l-3.4375 0l0 -1.671875l13.125 0l0 1.671875l-2.703125 0l0 2.5l3.53125 0l0 1.65625l-3.53125 0l0 6.25l-2.09375 0l0 -6.25l-2.8125 0q0.21875 4.59375 -4.6875 6.78125l-1.03125 -1.984375q3.640625 -1.359375 3.640625 -4.796875l-4.15625 0zm3.734375 -14.46875l-5.203125 0l0 1.875l5.203125 0l0 -1.875zm2.09375 6.984375l-7.296875 0l0 14.578125l-2.078125 0l0 -23.21875l9.375 0l0 8.640625zm3.21875 5.828125l0 -2.5l-2.8125 0l0 2.5l2.8125 0zm7.296875 -10.9375l0 -1.875l-5.625 0l0 1.875l5.625 0zm-5.625 3.4375l5.625 0l0 -1.765625l-5.625 0l0 1.765625zm-12.1875 0l5.203125 0l0 -1.765625l-5.203125 0l0 1.765625zm29.890625 2.1875q-2.1875 1.671875 -5.515625 2.8125l-1.046875 -2.078125q3.328125 -1.046875 5.828125 -2.921875l-3.125 -2.1875l1.46875 -1.671875l3.421875 2.40625q1.046875 -0.734375 2.71875 -3.125l-5.625 0l0 -1.984375l6.765625 0l0.421875 -0.40625l1.5625 1.140625q0.40625 0.40625 -0.3125 0.515625q1.25 1.453125 2.078125 2.296875l3.125 -3.125l1.765625 1.34375q0.109375 0.53125 -0.515625 0.3125l-3.125 2.609375q0.421875 0.515625 1.359375 1.046875l3.21875 -3.234375l1.765625 1.453125q0.109375 0.53125 -0.515625 0.3125l-3.125 2.5q1.671875 1.046875 4.890625 2.09375l-1.03125 2.1875q-2.921875 -0.9375 -5.3125 -2.71875l0 1.5625l-1.984375 0l0 2.8125l6.359375 0l0 1.984375l-6.359375 0l0 4.578125q0 0.828125 0.734375 0.828125l3.015625 0q1.140625 0 1.359375 -0.9375l0.515625 -1.96875l2.1875 0.71875q-0.625 4.171875 -2.921875 4.171875l-5.296875 0q-1.671875 0 -1.671875 -1.765625l0 -5.625l-3.328125 0q0 6.875 -8.953125 8.125l-0.625 -2.1875q7.484375 -1.15625 7.484375 -5.9375l-5.921875 0l0 -1.984375l6.03125 0l0 -2.8125l-1.765625 0l0 -1.140625zm5.515625 -5.828125q-1.671875 3.015625 -4.375 5.0l9.375 0q-3.125 -2.09375 -5.0 -5.0zm1.5625 9.78125l0 -2.8125l-3.234375 0l0 2.8125l3.234375 0zm26.03125 -6.34375l6.96875 0l0 1.96875l-6.96875 0l0 1.5625l7.703125 0l0 1.984375l-7.703125 0l0 1.671875l10.7187805 0l0 1.96875l-10.0937805 0q2.296875 3.125 10.0937805 4.796875l-0.71875 2.390625q-8.2344055 -1.984375 -10.7344055 -6.25q-2.5 5.3125 -10.921875 6.5625l-0.84375 -2.1875q7.8125 -1.140625 9.796875 -5.3125l-9.890625 0l0 -1.96875l10.515625 0l0 -1.671875l-7.390625 0l0 -1.984375l7.390625 0l0 -1.5625l-6.875 0l0 -1.96875l6.875 0l0 -2.09375l1.96875 0q0.84375 0.109375 0.109375 0.625l0 1.46875zm-11.96875 -4.90625l9.890625 0l0 -2.390625l2.28125 0q1.046875 0.21875 0.109375 0.84375l0 1.546875l9.7812805 0l0 5.625l-2.078125 0l0 -3.640625l-17.90628 0l0 3.640625l-2.078125 0l0 -5.625zm44.56253 17.390625l-4.0625 0l1.140625 1.671875q0.3125 0.625 -0.625 0.421875q-2.59375 1.25 -5.515625 1.875l-0.734375 -2.09375q3.4375 -0.515625 5.53125 -1.875l-2.8125 0l0 -9.359375l10.296875 0l0 9.359375l-3.015625 0q1.5625 1.046875 5.0 2.09375l-0.734375 1.875q-3.125 -0.734375 -5.515625 -2.5l1.046875 -1.46875zm-1.25 -19.984375q0.828125 0.109375 0.109375 0.625l0 1.453125l5.828125 0l0 1.671875l-5.828125 0l0 1.34375l4.578125 0l0 1.25l-4.578125 0l0 1.46875l6.03125 0l0 1.65625l-13.75 0l0 -1.65625l5.625 0l0 -1.46875l-4.375 0l0 -1.25l4.375 0l0 -1.34375l-5.515625 0l0 -1.671875l5.515625 0l0 -2.078125l1.984375 0zm2.703125 11.875l-6.765625 0l0 1.453125l6.765625 0l0 -1.453125zm0 5.40625l-6.765625 0l0 1.453125l6.765625 0l0 -1.453125zm0 -2.703125l-6.765625 0l0 1.453125l6.765625 0l0 -1.453125zm-12.703125 -3.546875q-0.421875 -0.828125 -0.828125 -1.765625l1.5625 -0.828125q1.25 2.078125 2.1875 4.46875l-1.671875 1.046875q-0.3125 -0.734375 -0.625 -1.453125l-2.296875 0.203125l0 11.25l-2.078125 0l0 -10.9375l-3.328125 0.3125q-0.3125 0.828125 -0.515625 0l-0.21875 -2.078125l2.1875 0l1.46875 -1.984375q-2.09375 -1.671875 -3.65625 -2.8125l1.15625 -1.671875q0.9375 0.53125 1.03125 0.734375q1.78125 -2.703125 3.234375 -5.515625l1.65625 0.9375q0.734375 0.3125 -0.203125 0.625q-1.5625 2.5 -3.328125 4.890625q0.828125 0.625 1.359375 1.046875q1.34375 -1.875 2.703125 -4.0625l1.65625 0.9375q0.734375 0.3125 -0.203125 0.625q-2.1875 3.125 -4.578125 6.140625l3.328125 -0.109375zm0.9375 3.546875q1.25 1.875 1.875 4.578125l-1.671875 0.9375q-0.828125 -3.015625 -1.765625 -4.796875l1.5625 -0.71875zm-8.53125 6.03125q0.828125 -3.125 1.03125 -6.03125l1.671875 0.203125q0.828125 0.203125 0.109375 0.515625q-0.21875 2.609375 -0.9375 6.046875l-1.875 -0.734375zm26.03125 -9.359375q3.75 -3.75 5.09375 -11.140625l2.1875 0.625q0.421875 0.40625 -0.3125 0.515625q-1.25 4.375 -1.65625 5.515625l0.40625 0.109375q0.3125 0.3125 -0.203125 0.625l0 16.234375l-2.078125 0l0 -13.21875q-1.15625 1.671875 -2.296875 2.703125l-1.140625 -1.96875zm5.9375 4.359375q3.21875 -3.328125 3.84375 -11.546875l-2.1875 0l0 -1.984375l9.265625 0l0 1.984375l-5.09375 0l-0.421875 3.328125l4.375 0l0 2.5q0 8.953125 -7.1875 13.75l-1.25 -1.875q3.640625 -2.296875 5.3125 -6.359375q-1.5625 -1.34375 -2.8125 -1.875q-0.9375 1.984375 -2.390625 3.859375l-1.453125 -1.78125zm4.46875 -3.953125q1.5625 0.53125 2.8125 1.5625q0.515625 -1.875 0.515625 -3.84375l-2.703125 0q-0.109375 0.9375 -0.625 2.28125zm10.515625 9.796875q0.421875 0 0.421875 -0.421875l0 -19.890625l1.96875 0q0.84375 0.109375 0.109375 0.625l0 20.203125q0 1.453125 -1.359375 1.453125l-2.796875 0l-0.21875 -1.96875l1.875 0zm-1.5625 -3.65625l-2.078125 0l0 -13.84375l1.984375 0q0.828125 0.109375 0.09375 0.625l0 13.21875zm25.40625 -9.78125q0 2.078125 -1.453125 3.75q-1.25 1.140625 -3.234375 2.609375q-3.53125 2.59375 -4.0625 4.15625l9.28125 0l0 2.296875l-11.984375 0l0 -2.09375q1.046875 -2.5 3.75 -4.671875q2.921875 -2.296875 4.0625 -3.4375q1.140625 -1.046875 1.140625 -2.609375q0 -1.359375 -0.9375 -2.296875q-0.625 -0.625 -2.078125 -0.625q-1.453125 0 -2.078125 0.625q-0.9375 0.9375 -0.734375 2.609375l-2.609375 0q-0.09375 -2.5 1.359375 -3.953125q1.5625 -1.5625 4.0625 -1.5625q2.5 0 3.953125 1.453125q1.5625 1.5625 1.5625 3.75zm3.640625 -5.0q3.75 3.75 3.75 9.0625q0 5.3125 -3.75 9.0625q-3.734375 3.75 -9.046875 3.75q-5.3125 0 -9.0625 -3.75q-3.75 -3.75 -3.75 -9.0625q0 -5.3125 3.75 -9.0625q3.75 -3.75 9.0625 -3.75q5.3125 0 9.046875 3.75zm-0.71875 17.390625q3.4375 -3.4375 3.4375 -8.328125q0 -4.890625 -3.4375 -8.328125q-3.4375 -3.4375 -8.328125 -3.4375q-4.90625 0 -8.328125 3.4375q-3.4375 3.4375 -3.4375 8.328125q0 4.890625 3.4375 8.328125q3.421875 3.4375 8.328125 3.4375q4.890625 0 8.328125 -3.4375z" fill-rule="nonzero"/><path fill="#000000" fill-opacity="0.0" d="m229.2664 319.80316l225.73228 0l0 81.19684l-225.73228 0z" fill-rule="evenodd"/><path fill="#000000" d="m261.5497 370.28506q-0.4375 0 -0.6875 -0.203125q-0.25 -0.203125 -0.296875 -0.53125q-0.03125 -0.34375 0.15625 -0.765625l7.390625 -16.859375q0.25 -0.53125 0.578125 -0.765625q0.34375 -0.234375 0.75 -0.234375q0.40625 0 0.734375 0.234375q0.34375 0.234375 0.5625 0.765625l7.421875 16.859375q0.21875 0.421875 0.171875 0.78125q-0.03125 0.34375 -0.28125 0.53125q-0.234375 0.1875 -0.671875 0.1875q-0.484375 0 -0.78125 -0.25q-0.296875 -0.265625 -0.484375 -0.75l-1.984375 -4.59375l1.078125 0.5625l-11.578125 0l1.09375 -0.5625l-1.953125 4.59375q-0.25 0.515625 -0.515625 0.765625q-0.265625 0.234375 -0.703125 0.234375zm7.859375 -16.578125l-4.328125 10.203125l-0.65625 -0.515625l9.96875 0l-0.59375 0.515625l-4.328125 -10.203125l-0.0625 0zm12.954254 16.578125q-0.546875 0 -0.8125 -0.296875q-0.265625 -0.296875 -0.265625 -0.828125l0 -11.234375q0 -0.53125 0.265625 -0.8125q0.265625 -0.28125 0.78125 -0.28125q0.515625 0 0.796875 0.28125q0.28125 0.28125 0.28125 0.8125l0 2.3125l-0.296875 -0.3125q0.5625 -1.5625 1.84375 -2.359375q1.28125 -0.796875 2.953125 -0.796875q1.5625 0 2.59375 0.5625q1.03125 0.5625 1.546875 1.71875q0.515625 1.140625 0.515625 2.890625l0 7.21875q0 0.53125 -0.28125 0.828125q-0.28125 0.296875 -0.796875 0.296875q-0.53125 0 -0.828125 -0.296875q-0.28125 -0.296875 -0.28125 -0.828125l0 -7.078125q0 -1.84375 -0.71875 -2.6875q-0.703125 -0.84375 -2.265625 -0.84375q-1.796875 0 -2.859375 1.125q-1.0625 1.109375 -1.0625 2.96875l0 6.515625q0 1.125 -1.109375 1.125zm19.197937 0.0625q-1.75 0 -3.0625 -0.828125q-1.296875 -0.84375 -2.015625 -2.359375q-0.71875 -1.53125 -0.71875 -3.609375q0 -2.09375 0.71875 -3.609375q0.71875 -1.53125 2.015625 -2.34375q1.3125 -0.828125 3.0625 -0.828125q1.765625 0 3.03125 0.890625q1.265625 0.890625 1.703125 2.390625l-0.296875 0l0 -8.015625q0 -0.546875 0.28125 -0.828125q0.28125 -0.28125 0.828125 -0.28125q0.5 0 0.78125 0.28125q0.296875 0.28125 0.296875 0.828125l0 17.125q0 0.53125 -0.28125 0.828125q-0.265625 0.296875 -0.796875 0.296875q-0.515625 0 -0.796875 -0.296875q-0.28125 -0.296875 -0.28125 -0.828125l0 -2.5625l0.296875 0.375q-0.4375 1.53125 -1.71875 2.453125q-1.28125 0.921875 -3.046875 0.921875zm0.453125 -1.75q1.21875 0 2.125 -0.59375q0.921875 -0.59375 1.40625 -1.71875q0.5 -1.140625 0.5 -2.734375q0 -2.4375 -1.09375 -3.734375q-1.078125 -1.296875 -2.9375 -1.296875q-1.234375 0 -2.140625 0.578125q-0.90625 0.578125 -1.40625 1.703125q-0.484375 1.109375 -0.484375 2.75q0 2.421875 1.09375 3.734375q1.109375 1.3125 2.9375 1.3125zm11.367401 1.6875q-0.546875 0 -0.828125 -0.296875q-0.28125 -0.296875 -0.28125 -0.828125l0 -11.234375q0 -0.53125 0.265625 -0.8125q0.265625 -0.28125 0.78125 -0.28125q0.515625 0 0.796875 0.28125q0.28125 0.28125 0.28125 0.8125l0 2.1875l-0.265625 0q0.421875 -1.59375 1.625 -2.453125q1.21875 -0.859375 3.0 -0.921875q0.40625 -0.015625 0.640625 0.1875q0.25 0.203125 0.28125 0.6875q0.015625 0.453125 -0.234375 0.71875q-0.234375 0.265625 -0.734375 0.328125l-0.4375 0.046875q-1.828125 0.171875 -2.8125 1.1875q-0.984375 1.0 -0.984375 2.75l0 6.515625q0 0.53125 -0.28125 0.828125q-0.28125 0.296875 -0.8125 0.296875zm13.804596 0.0625q-1.90625 0 -3.3125 -0.828125q-1.40625 -0.84375 -2.171875 -2.359375q-0.765625 -1.53125 -0.765625 -3.609375q0 -1.5625 0.421875 -2.8125q0.4375 -1.25 1.265625 -2.140625q0.84375 -0.890625 1.984375 -1.359375q1.15625 -0.46875 2.578125 -0.46875q1.90625 0 3.3125 0.84375q1.40625 0.828125 2.171875 2.359375q0.765625 1.515625 0.765625 3.578125q0 1.5625 -0.4375 2.8125q-0.421875 1.234375 -1.265625 2.140625q-0.828125 0.890625 -1.984375 1.375q-1.140625 0.46875 -2.5625 0.46875zm0 -1.75q1.21875 0 2.125 -0.59375q0.921875 -0.59375 1.40625 -1.71875q0.5 -1.140625 0.5 -2.734375q0 -2.4375 -1.09375 -3.734375q-1.078125 -1.296875 -2.9375 -1.296875q-1.234375 0 -2.140625 0.578125q-0.90625 0.578125 -1.40625 1.703125q-0.484375 1.109375 -0.484375 2.75q0 2.421875 1.09375 3.734375q1.109375 1.3125 2.9375 1.3125zm10.609253 1.640625q-0.546875 0 -0.8125 -0.3125q-0.265625 -0.3125 -0.265625 -0.875l0 -11.015625q0 -0.5625 0.265625 -0.859375q0.265625 -0.296875 0.8125 -0.296875q0.515625 0 0.8125 0.296875q0.296875 0.296875 0.296875 0.859375l0 11.015625q0 0.5625 -0.296875 0.875q-0.28125 0.3125 -0.8125 0.3125zm0 -16.375q-0.671875 0 -1.046875 -0.359375q-0.375 -0.359375 -0.375 -0.984375q0 -0.640625 0.375 -0.984375q0.375 -0.34375 1.046875 -0.34375q0.703125 0 1.0625 0.34375q0.359375 0.34375 0.359375 0.984375q0 0.625 -0.359375 0.984375q-0.359375 0.359375 -1.0625 0.359375zm10.15213 16.484375q-1.75 0 -3.0625 -0.828125q-1.296875 -0.84375 -2.015625 -2.359375q-0.71875 -1.53125 -0.71875 -3.609375q0 -2.09375 0.71875 -3.609375q0.71875 -1.53125 2.015625 -2.34375q1.3125 -0.828125 3.0625 -0.828125q1.765625 0 3.03125 0.890625q1.265625 0.890625 1.703125 2.390625l-0.296875 0l0 -8.015625q0 -0.546875 0.28125 -0.828125q0.28125 -0.28125 0.828125 -0.28125q0.5 0 0.78125 0.28125q0.296875 0.28125 0.296875 0.828125l0 17.125q0 0.53125 -0.28125 0.828125q-0.265625 0.296875 -0.796875 0.296875q-0.515625 0 -0.796875 -0.296875q-0.28125 -0.296875 -0.28125 -0.828125l0 -2.5625l0.296875 0.375q-0.4375 1.53125 -1.71875 2.453125q-1.28125 0.921875 -3.046875 0.921875zm0.453125 -1.75q1.21875 0 2.125 -0.59375q0.921875 -0.59375 1.40625 -1.71875q0.5 -1.140625 0.5 -2.734375q0 -2.4375 -1.09375 -3.734375q-1.078125 -1.296875 -2.9375 -1.296875q-1.234375 0 -2.140625 0.578125q-0.90625 0.578125 -1.40625 1.703125q-0.484375 1.109375 -0.484375 2.75q0 2.421875 1.09375 3.734375q1.109375 1.3125 2.9375 1.3125z" fill-rule="nonzero"/><path fill="#000000" d="m369.4402 359.3632q0.21875 8.0 -6.828125 12.421875l-1.796875 -2.0q6.203125 -3.375 6.203125 -9.46875l0 -4.515625l2.21875 0q0.9375 0.09375 0.203125 0.734375l0 2.734375q3.78125 -2.84375 5.78125 -5.578125l-17.140625 0.625l-0.203125 -2.40625l19.140625 -0.53125l0.734375 -0.203125l1.578125 1.890625q0.3125 0.421875 -0.53125 0.3125q-3.15625 4.09375 -7.5625 7.671875l-1.796875 -1.6875zm31.546997 -7.359375q0.84375 0 1.375 -0.515625q0.515625 -0.53125 0.515625 -1.375q0 -0.84375 -0.515625 -1.359375q-0.53125 -0.53125 -1.375 -0.53125q-0.84375 0 -1.359375 0.53125q-0.53125 0.515625 -0.53125 1.359375q0 0.84375 0.53125 1.375q0.515625 0.515625 1.359375 0.515625zm0 1.0625q-1.265625 0 -2.09375 -0.84375q-0.84375 -0.84375 -0.84375 -2.109375q0 -1.265625 0.84375 -2.09375q0.828125 -0.84375 2.09375 -0.84375q1.265625 0 2.109375 0.84375q0.84375 0.828125 0.84375 2.09375q0 1.265625 -0.84375 2.109375q-0.84375 0.84375 -2.109375 0.84375zm-18.828125 1.359375l0 -2.3125l15.578125 0l2.734375 2.0q-0.53125 12.71875 -14.40625 16.609375l-1.90625 -2.3125q13.15625 -3.046875 13.78125 -13.984375l-15.78125 0zm38.704468 6.421875q0 7.890625 -7.359375 11.359375l-2.109375 -1.796875q6.953125 -3.15625 7.046875 -9.671875l0 -10.515625l2.21875 0q1.046875 0.203125 0.203125 0.84375l0 9.78125zm-10.828125 2.3125l-2.421875 0l0 -11.890625l2.3125 0q1.0625 0.109375 0.109375 0.84375l0 11.046875z" fill-rule="nonzero"/><path fill="#000000" fill-opacity="0.0" d="m511.05118 325.22046l201.13388 0l0 70.36221l-201.13388 0z" fill-rule="evenodd"/><path fill="#000000" d="m556.98456 370.28506q-0.484375 0 -0.78125 -0.25q-0.296875 -0.265625 -0.484375 -0.765625l-5.9375 -17.0q-0.203125 -0.5625 0.078125 -0.953125q0.296875 -0.390625 0.90625 -0.390625q0.46875 0 0.734375 0.234375q0.265625 0.234375 0.453125 0.71875l5.578125 16.328125l-0.953125 0l5.6875 -16.25q0.1875 -0.515625 0.453125 -0.765625q0.28125 -0.265625 0.734375 -0.265625q0.421875 0 0.671875 0.265625q0.265625 0.25 0.453125 0.765625l5.609375 16.25l-0.84375 0l5.625 -16.328125q0.140625 -0.46875 0.421875 -0.703125q0.28125 -0.25 0.734375 -0.25q0.578125 0 0.84375 0.375q0.265625 0.375 0.046875 0.96875l-5.96875 17.0q-0.1875 0.5 -0.484375 0.765625q-0.28125 0.25 -0.78125 0.25q-0.484375 0 -0.765625 -0.25q-0.28125 -0.265625 -0.5 -0.765625l-5.421875 -15.59375l0.59375 0l-5.453125 15.59375q-0.203125 0.5 -0.46875 0.765625q-0.265625 0.25 -0.78125 0.25zm27.567627 0.0625q-2.0625 0 -3.5625 -0.828125q-1.5 -0.828125 -2.328125 -2.328125q-0.8125 -1.515625 -0.8125 -3.609375q0 -2.046875 0.8125 -3.5625q0.8125 -1.53125 2.21875 -2.390625q1.421875 -0.859375 3.265625 -0.859375q1.328125 0 2.375 0.453125q1.046875 0.4375 1.78125 1.28125q0.75 0.828125 1.140625 2.015625q0.390625 1.171875 0.390625 2.65625q0 0.4375 -0.25 0.640625q-0.234375 0.203125 -0.6875 0.203125l-9.375 0l0 -1.4375l8.859375 0l-0.4375 0.359375q0 -1.453125 -0.4375 -2.46875q-0.421875 -1.015625 -1.25 -1.546875q-0.8125 -0.546875 -2.046875 -0.546875q-1.375 0 -2.328125 0.640625q-0.953125 0.625 -1.4375 1.75q-0.484375 1.109375 -0.484375 2.59375l0 0.171875q0 2.46875 1.1875 3.765625q1.203125 1.296875 3.40625 1.296875q0.921875 0 1.8125 -0.25q0.90625 -0.25 1.765625 -0.8125q0.390625 -0.234375 0.6875 -0.21875q0.3125 0.015625 0.5 0.1875q0.1875 0.171875 0.25 0.4375q0.078125 0.25 -0.046875 0.546875q-0.125 0.296875 -0.46875 0.5q-0.890625 0.65625 -2.109375 1.015625q-1.203125 0.34375 -2.390625 0.34375zm15.056885 0q-1.78125 0 -3.0625 -0.921875q-1.28125 -0.921875 -1.703125 -2.453125l0.296875 -0.296875l0 2.484375q0 0.53125 -0.28125 0.828125q-0.28125 0.296875 -0.796875 0.296875q-0.546875 0 -0.8125 -0.296875q-0.265625 -0.296875 -0.265625 -0.828125l0 -17.125q0 -0.546875 0.265625 -0.828125q0.265625 -0.28125 0.8125 -0.28125q0.515625 0 0.8125 0.28125q0.296875 0.28125 0.296875 0.828125l0 8.015625l-0.328125 0q0.453125 -1.5 1.71875 -2.390625q1.265625 -0.890625 3.046875 -0.890625q1.78125 0 3.0625 0.828125q1.296875 0.8125 2.0 2.34375q0.71875 1.515625 0.71875 3.609375q0 2.078125 -0.71875 3.609375q-0.703125 1.515625 -2.015625 2.359375q-1.296875 0.828125 -3.046875 0.828125zm-0.453125 -1.75q1.234375 0 2.125 -0.59375q0.90625 -0.59375 1.40625 -1.71875q0.5 -1.140625 0.5 -2.734375q0 -2.4375 -1.09375 -3.734375q-1.09375 -1.296875 -2.9375 -1.296875q-1.21875 0 -2.140625 0.578125q-0.90625 0.578125 -1.40625 1.703125q-0.5 1.109375 -0.5 2.75q0 2.421875 1.09375 3.734375q1.109375 1.3125 2.953125 1.3125z" fill-rule="nonzero"/><path fill="#000000" d="m619.4609 359.3632q0.21875 8.0 -6.828125 12.421875l-1.796875 -2.0q6.203125 -3.375 6.203125 -9.46875l0 -4.515625l2.21875 0q0.9375 0.09375 0.203125 0.734375l0 2.734375q3.78125 -2.84375 5.78125 -5.578125l-17.140625 0.625l-0.203125 -2.40625l19.140625 -0.53125l0.734375 -0.203125l1.578125 1.890625q0.3125 0.421875 -0.53125 0.3125q-3.15625 4.09375 -7.5625 7.671875l-1.796875 -1.6875zm31.546997 -7.359375q0.84375 0 1.375 -0.515625q0.515625 -0.53125 0.515625 -1.375q0 -0.84375 -0.515625 -1.359375q-0.53125 -0.53125 -1.375 -0.53125q-0.84375 0 -1.359375 0.53125q-0.53125 0.515625 -0.53125 1.359375q0 0.84375 0.53125 1.375q0.515625 0.515625 1.359375 0.515625zm0 1.0625q-1.265625 0 -2.09375 -0.84375q-0.84375 -0.84375 -0.84375 -2.109375q0 -1.265625 0.84375 -2.09375q0.828125 -0.84375 2.09375 -0.84375q1.265625 0 2.109375 0.84375q0.84375 0.828125 0.84375 2.09375q0 1.265625 -0.84375 2.109375q-0.84375 0.84375 -2.109375 0.84375zm-18.828125 1.359375l0 -2.3125l15.578125 0l2.734375 2.0q-0.53125 12.71875 -14.40625 16.609375l-1.90625 -2.3125q13.15625 -3.046875 13.78125 -13.984375l-15.78125 0zm38.704468 6.421875q0 7.890625 -7.359375 11.359375l-2.109375 -1.796875q6.953125 -3.15625 7.046875 -9.671875l0 -10.515625l2.21875 0q1.046875 0.203125 0.203125 0.84375l0 9.78125zm-10.828125 2.3125l-2.421875 0l0 -11.890625l2.3125 0q1.0625 0.109375 0.109375 0.84375l0 11.046875z" fill-rule="nonzero"/><path fill="#000000" fill-opacity="0.0" d="m441.30695 319.20068l86.897644 0l0 70.36218l-86.897644 0z" fill-rule="evenodd"/><path fill="#000000" d="m484.7558 371.959q-1.171875 0 -1.828125 -0.671875q-0.640625 -0.671875 -0.640625 -1.84375l0 -8.78125l-8.625 0q-1.125 0 -1.765625 -0.609375q-0.640625 -0.625 -0.640625 -1.75q0 -1.125 0.640625 -1.734375q0.640625 -0.625 1.765625 -0.625l8.625 0l0 -8.53125q0 -1.171875 0.640625 -1.8125q0.65625 -0.640625 1.875 -0.640625q1.1875 0 1.796875 0.640625q0.625 0.640625 0.625 1.8125l0 8.53125l8.625 0q1.171875 0 1.78125 0.625q0.625 0.609375 0.625 1.734375q0 1.125 -0.625 1.75q-0.609375 0.609375 -1.78125 0.609375l-8.625 0l0 8.78125q0 1.171875 -0.625 1.84375q-0.609375 0.671875 -1.84375 0.671875z" fill-rule="nonzero"/></g></svg>